<?xml version="1.0" encoding="UTF-8"?>
<svg width="375px" height="352px" viewBox="0 0 375 352" version="1.1" xmlns="http://www.w3.org/2000/svg" xmlns:xlink="http://www.w3.org/1999/xlink">
    <!-- Generator: Sketch 58 (84663) - https://sketch.com -->
    <title>illustration</title>
    <desc>Created with Sketch.</desc>
    <g id="Empty-States-Mobile" stroke="none" stroke-width="1" fill="none" fill-rule="evenodd">
        <g id="Featured-Slider" transform="translate(0.000000, -255.000000)" fill-rule="nonzero">
            <g id="featured" transform="translate(0.000000, 50.000000)">
                <g id="picture">
                    <g id="illustration" transform="translate(0.000000, 205.000000)">
                        <ellipse id="Oval" fill="#FF6584" cx="71.5" cy="46" rx="21.5" ry="29"></ellipse>
                        <path d="M175,155.604877 C175,224.088188 145.003076,248 108,248 C70.9969174,248 41,224.088188 41,155.604877 C41,87.121567 108,0 108,0 C108,0 175,87.121567 175,155.604877 Z" id="Path" fill="#F2F2F2"></path>
                        <polygon id="Path" fill="#3F3D56" points="105.846249 237.172829 106.530471 179.943265 135 109.14204 106.637735 170.965528 106.945202 145.23276 126.566472 94.0090332 107.026483 138.423156 107.026483 138.423156 107.579457 92.1415769 128.590492 51.3609333 107.666734 84.8637504 108.012177 0 105.840252 112.344429 106.018803 107.70975 84.6569964 63.261665 105.676359 116.606431 103.685983 168.294758 103.626689 166.923147 79 120.147987 103.55207 171.769748 103.303232 178.233845 103.258594 178.331203 103.278914 178.861916 98.2291906 310 104.976146 310 105.785621 242.26441 130.277064 190.768987"></polygon>
                        <path d="M375,183.370133 C375,239.427025 350.375662,259 320,259 C289.624338,259 265,239.427025 265,183.370133 C265,127.313241 320,56 320,56 C320,56 375,127.313228 375,183.370133 Z" id="Path" fill="#F2F2F2"></path>
                        <polygon id="Path" fill="#3F3D56" points="318.052454 250.563728 318.614062 203.857188 342 146.074269 318.702315 196.529973 318.955038 175.528961 335.072505 133.723335 319.021896 169.971131 319.021896 169.971131 319.476196 132.19956 336.73493 98.9171437 319.5474 126.260222 319.831547 57 318.04744 148.687488 318.194194 144.905364 300.646633 108.629576 317.912721 152.16621 316.277708 194.350636 316.228902 193.230943 296 155.056192 316.167726 197.186438 315.963141 202.462087 315.926703 202.541549 315.943418 202.974527 311.795211 310 317.337408 310 318.002311 254.719233 338.120562 212.692377"></polygon>
                        <ellipse id="Oval" fill="#3F3D56" cx="185.5" cy="308" rx="185.5" ry="13"></ellipse>
                        <ellipse id="Oval" fill="#3F3D56" cx="299" cy="328.5" rx="32" ry="2.5"></ellipse>
                        <ellipse id="Oval" fill="#3F3D56" cx="183" cy="349.5" rx="32" ry="2.5"></ellipse>
                        <ellipse id="Oval" fill="#3F3D56" cx="96.5" cy="332" rx="72.5" ry="5"></ellipse>
                        <ellipse id="Oval" fill="#2F2E41" cx="32.5" cy="256" rx="26.5" ry="36"></ellipse>
                        <polygon id="Rectangle" fill="#2F2E41" transform="translate(24.124557, 293.852696) rotate(0.675090) translate(-24.124557, -293.852696) " points="20.0794157 284.10888 28.1099946 284.142203 28.1696982 303.596512 20.1391193 303.563189"></polygon>
                        <polygon id="Rectangle" fill="#2F2E41" transform="translate(40.183814, 294.108575) rotate(0.675090) translate(-40.183814, -294.108575) " points="36.1386723 284.364759 44.1692512 284.398081 44.2289549 303.852391 36.198376 303.819068"></polygon>
                        <ellipse id="Oval" fill="#2F2E41" transform="translate(26.714364, 303.848377) rotate(-89.324910) translate(-26.714364, -303.848377) " cx="26.714364" cy="303.848377" rx="3.39330954" ry="6.69215737"></ellipse>
                        <ellipse id="Oval" fill="#2F2E41" transform="translate(42.777563, 303.651842) rotate(-89.324910) translate(-42.777563, -303.651842) " cx="42.7775634" cy="303.651842" rx="3.39330954" ry="6.69215737"></ellipse>
                        <ellipse id="Oval" fill="#FFFFFF" cx="34" cy="246.5" rx="9" ry="12.5"></ellipse>
                        <ellipse id="Oval" fill="#3F3D56" cx="33" cy="247.5" rx="3" ry="4.5"></ellipse>
                        <path d="M6.35021461,222.582136 C4.32871513,209.613849 11.2644272,196.653111 21.8415652,193.633517 C32.4187032,190.613923 42.6319187,198.678936 44.6534249,211.647223 C46.6749311,224.615509 39.641929,229.274394 29.0647944,232.293997 C18.4876597,235.313599 8.37171744,235.550428 6.35021461,222.582136 Z" id="Path" fill="#000000"></path>
                        <path d="M73,276.469404 C73,301.322291 62.0315018,310 48.5,310 C48.1865326,310 47.8735627,309.995307 47.5610919,309.985921 C46.9341392,309.967821 46.3131632,309.92762 45.6996582,309.871304 C33.4877341,308.707178 24,299.583126 24,276.469391 C24,252.549424 46.6938128,222.366464 48.3984873,220.13269 L48.4014757,220.128678 C48.4671664,220.042223 48.5,220 48.5,220 C48.5,220 73,251.616522 73,276.469404 Z" id="Path" fill="#000000"></path>
                        <path d="M47.0673739,306.211451 L56.2282347,289.344 L47.0444743,308.063498 L47.0200712,310 C46.3791192,309.981898 45.7442774,309.94169 45.1170734,309.885365 L46.1044406,285.016517 L46.0968029,284.823466 L46.1135854,284.78727 L46.2066736,282.438537 L37,263.672779 L46.2356594,280.676985 L46.2570452,281.175692 L47.0032647,262.385815 L39.1212323,242.994659 L47.099408,259.087932 L47.8761614,220.132688 L47.8792165,220 L47.8792165,220.128698 L47.7495082,250.847282 L55.5964651,238.669244 L47.7174638,253.493624 L47.5099257,270.316842 L54.836501,254.171279 L47.4794191,272.792255 L47.3634382,282.144941 L58,259.67309 L47.3237595,285.408659 L47.0673739,306.211451 Z" id="Path" fill="#3F3D56"></path>
                        <ellipse id="Oval" fill="#2F2E41" cx="238.5" cy="256" rx="26.5" ry="36"></ellipse>
                        <polygon id="Rectangle" fill="#2F2E41" transform="translate(238.922570, 295.119626) rotate(-17.083450) translate(-238.922570, -295.119626) " points="235.496931 286.007895 243.771203 285.213665 242.348208 304.231357 234.073936 305.025587"></polygon>
                        <polygon id="Rectangle" fill="#2F2E41" transform="translate(254.273894, 288.742072) rotate(-17.083183) translate(-254.273894, -288.742072) " points="250.848246 279.630321 259.122517 278.836102 257.699541 297.853822 249.42527 298.648041"></polygon>
                        <ellipse id="Oval" fill="#2F2E41" transform="translate(243.643595, 303.570883) rotate(-17.083450) translate(-243.643595, -303.570883) " cx="243.643595" cy="303.570883" rx="6.89977821" ry="3.38307674"></ellipse>
                        <ellipse id="Oval" fill="#2F2E41" transform="translate(258.897057, 296.758662) rotate(-17.083450) translate(-258.897057, -296.758662) " cx="258.897057" cy="296.758662" rx="6.89977821" ry="3.38307674"></ellipse>
                        <ellipse id="Oval" fill="#FFFFFF" cx="237" cy="246.5" rx="9" ry="12.5"></ellipse>
                        <ellipse id="Oval" fill="#3F3D56" cx="237" cy="247.5" rx="3" ry="4.5"></ellipse>
                        <path d="M206.140109,233.900684 C201.282286,222.337777 204.973925,207.06978 214.385618,199.798666 C223.797311,192.527553 235.365037,196.006737 240.22286,207.569645 C245.080683,219.132553 239.421339,226.502354 230.009646,233.773472 C220.597953,241.04459 210.997932,245.463592 206.140109,233.900684 Z" id="Path" fill="#000000"></path>
                        <path d="M190,271.077332 C190,293.99722 180.150739,302 168,302 C167.718521,302 167.437487,301.995672 167.1569,301.987016 C166.593922,301.970324 166.036309,301.933249 165.485408,301.881327 C154.519597,300.807744 146,292.393339 146,271.077342 C146,249.017811 166.37812,221.18241 167.908846,219.122376 L167.91153,219.118673 C167.97052,219.038942 168.000015,219 168.000015,219 C168.000015,219 190,248.157445 190,271.077332 Z" id="Path" fill="#000000"></path>
                        <path d="M168.108581,298.50612 L176.396994,282.950586 L168.087864,300.214116 L168.065786,302 C167.485876,301.983305 166.911493,301.946225 166.344023,301.894295 L167.237357,278.959697 L167.230447,278.781658 L167.245638,278.748282 L167.329861,276.582226 L159,259.276029 L167.356087,274.957681 L167.375434,275.417596 L168.050592,258.08916 L160.919216,240.206202 L168.137569,255.047772 L168.840347,219.122395 L168.843112,219 L168.843112,219.118691 L168.725756,247.448035 L175.825375,236.217186 L168.696748,249.888554 L168.508973,265.403294 L175.137784,250.513521 L168.481366,267.6862 L168.376429,276.311468 L178,255.587434 L168.340521,279.321329 L168.108581,298.50612 Z" id="Path" fill="#3F3D56"></path>
                        <path d="M280,281.469404 C280,306.322291 269.031502,315 255.5,315 C255.186535,315 254.873565,314.995307 254.561092,314.985921 C253.934139,314.967821 253.313163,314.92762 252.699658,314.871304 C240.487734,313.707178 231,304.583126 231,281.469391 C231,257.549424 253.693813,227.366464 255.398487,225.13269 L255.401476,225.128678 C255.467166,225.042223 255.5,225 255.5,225 C255.5,225 280,256.616522 280,281.469404 Z" id="Path" fill="#000000"></path>
                        <path d="M254.067361,311.211451 L263.228233,294.343997 L254.044462,313.063498 L254.020059,315 C253.379106,314.981898 252.744263,314.94169 252.117059,314.885365 L253.104427,290.016514 L253.096789,289.823462 L253.113572,289.787266 L253.20666,287.438533 L244,268.672785 L253.23567,285.676994 L253.257056,286.175702 L254.003276,267.385822 L246.121235,247.994663 L254.09942,264.087938 L254.876174,225.132688 L254.879229,225 L254.879229,225.128698 L254.74952,255.847287 L262.596486,243.669247 L254.717476,258.493629 L254.509921,275.316849 L261.836497,259.171271 L254.479407,277.792249 L254.363426,287.144937 L265,264.673082 L254.323747,290.408656 L254.067361,311.211451 Z" id="Path" fill="#3F3D56"></path>
                        <ellipse id="Oval" fill="#2F2E41" transform="translate(228.128580, 269.556011) rotate(-64.625740) translate(-228.128580, -269.556011) " cx="228.12858" cy="269.556011" rx="5.63944493" ry="14.082789"></ellipse>
                        <ellipse id="Oval" fill="#2F2E41" transform="translate(24.362606, 267.293786) rotate(-68.158290) translate(-24.362606, -267.293786) " cx="24.3626064" cy="267.293786" rx="5.64347752" ry="13.8700541"></ellipse>
                    </g>
                </g>
            </g>
        </g>
    </g>
</svg>