<svg xmlns="http://www.w3.org/2000/svg" width="253.196" height="63.807" viewBox="0 0 253.196 63.807">
  <path id="Path_19" data-name="Path 19" d="M28.048-8.535q0-5.076,2.9-15.565-9.061.226-13.874.526Q15.6-20.9,14.4-18.5l-2.331,4.625Q7.444-4.775,3.76-1.88A9.42,9.42,0,0,1-2.218.376,4.357,4.357,0,0,1-5.865-1.2a2.766,2.766,0,0,1-.526-1.222q-.075-.583.263-.771A16.21,16.21,0,0,0,.9-8.121,52.076,52.076,0,0,0,5.64-15.377l4.249-7.595-2.369.338q-2.256.414-2.256-.714a2.781,2.781,0,0,1,1.354-2.143,13.18,13.18,0,0,1,4.625-2.331l1.617-.376a148,148,0,0,1,9.418-14.25,85.984,85.984,0,0,1,5.94-6.768,40.965,40.965,0,0,1,5.658-4.775q6.5-4.474,12.821-4.474a3.338,3.338,0,0,1,2.594.79A2.647,2.647,0,0,1,50-55.024q-.414,1.41-1.354,4.042Q42.636-34.59,41.32-30.68q.6-.038,1.09-.038h.827q4.211,0,4.512.827a4.059,4.059,0,0,1,.075.959,3.783,3.783,0,0,1-.432,1.6,3.829,3.829,0,0,1-1.41,1.542q-1.993,1.354-6.692,1.579a85.473,85.473,0,0,0-2.914,12.219q-.357,3.384.226,4.568a1.808,1.808,0,0,0,1.654,1.184A6.121,6.121,0,0,0,40-6.448a7.775,7.775,0,0,0,1.2-.47l.978-.451a1.481,1.481,0,0,1,.771-.226q.395,0,.658.508a2.905,2.905,0,0,1,.263,1.335,3.99,3.99,0,0,1-.7,1.974,7.807,7.807,0,0,1-1.823,2.049A9.261,9.261,0,0,1,35.417.376q-5.076,0-6.768-4.512a8.044,8.044,0,0,1-.6-2.82Zm-7.52-20.979a122.42,122.42,0,0,1,12.407-1.015q1.053-3.233,2.256-6.392l2.331-6.016q1.2-2.857,2.369-5.414l2.181-4.625q-7.82,2.03-15.453,13.5Q25-37.071,23.461-34.515ZM87.678-7.595q.79,0,.79.827,0,3.233-3.346,5.564A7.331,7.331,0,0,1,80.929.376,8.908,8.908,0,0,1,77.79-.075,5.825,5.825,0,0,1,75.684-1.5a8.735,8.735,0,0,1-2.105-6.2,16.586,16.586,0,0,1,.3-2.519,33.248,33.248,0,0,1-5.226,6.617Q64.254.376,60.043.376q-6.655,0-8.723-6.016a17.559,17.559,0,0,1-.752-5.564,23.7,23.7,0,0,1,1.015-6.768,31.041,31.041,0,0,1,2.763-6.5,34.845,34.845,0,0,1,4.061-5.734,33.428,33.428,0,0,1,4.869-4.606q5.489-4.1,9.926-4.1A8.406,8.406,0,0,1,80.309-35.3q6.542-22.408,9.851-26.431a3.9,3.9,0,0,1,2.933-1.654,4.936,4.936,0,0,1,3.873,1.466,1.519,1.519,0,0,1,.414.978,5.513,5.513,0,0,1-.6,1.8q-.6,1.316-1.767,4.249-3.346,8.835-4.7,12.934-3.459,10.49-4.662,14.438L83.58-20.566Q80.91-11.279,80.91-8.76t1.842,2.519a6.761,6.761,0,0,0,2.707-.451l1.429-.677A1.652,1.652,0,0,1,87.678-7.595ZM61.848-5.264q3.873,0,8.873-7.557a50.17,50.17,0,0,0,7.294-17.032,4.4,4.4,0,0,0-2.143-3.76,4.011,4.011,0,0,0-2.049-.414,6.882,6.882,0,0,0-3.2,1,15.908,15.908,0,0,0-3.534,2.688,24.013,24.013,0,0,0-3.2,3.967,31.216,31.216,0,0,0-2.575,4.831,27.757,27.757,0,0,0-2.369,10.922Q58.953-5.264,61.848-5.264ZM93.167-3.647A7.036,7.036,0,0,1,92.6-6.58a15.146,15.146,0,0,1,.526-3.741,37.721,37.721,0,0,1,1.354-4.192q.827-2.143,1.842-4.361l1.917-4.361q3.722-8.61,2.745-10.151a4.748,4.748,0,0,0-1.729-1.429,1.006,1.006,0,0,1-.414-.921A1.861,1.861,0,0,1,99.389-37a4.856,4.856,0,0,1,1.448-1.053,8.365,8.365,0,0,1,3.647-.865,7.684,7.684,0,0,1,2.8.395,5.18,5.18,0,0,1,1.6,1,4.162,4.162,0,0,1,1.2,3.008,13.818,13.818,0,0,1-.677,3.985q-.677,2.218-1.692,4.662t-2.218,5l-2.218,4.925q-2.369,5.452-2.369,7.219,0,3.459,2.444,3.459,6.279,0,11.768-7.444a28.268,28.268,0,0,0,4.587-9.4,17.2,17.2,0,0,0,.639-4.38q0-1.974-.132-3.29a12.693,12.693,0,0,0-.432-2.331,7.645,7.645,0,0,0-1.654-3.121q-.79-.978.714-2.293a7.1,7.1,0,0,1,4.7-1.391,4.181,4.181,0,0,1,3.309,1.767,9.013,9.013,0,0,1,1.8,6.034,26.006,26.006,0,0,1-1.166,7.708,34.557,34.557,0,0,1-3.2,7.256A37.535,37.535,0,0,1,119.5-9.663a35.853,35.853,0,0,1-5.959,5.226Q106.7.376,99.859.376,94.934.376,93.167-3.647ZM161.369-10q0,3.459,2.444,3.459a6.533,6.533,0,0,0,2.8-.526,4.6,4.6,0,0,1,1.485-.526q.79,0,.79.827,0,3.233-3.384,5.564A7.917,7.917,0,0,1,158.211,0,6.105,6.105,0,0,1,154.6-3.722a7.511,7.511,0,0,1-.564-2.669,24.378,24.378,0,0,1,.376-4.136q-3.5,7.144-8.685,9.851a9.563,9.563,0,0,1-4.4,1.053,8.136,8.136,0,0,1-4.042-.959,8.886,8.886,0,0,1-2.914-2.651,14.146,14.146,0,0,1-2.218-8.873A27.825,27.825,0,0,1,136.1-25.228a30.669,30.669,0,0,1,8.647-9.813q5.226-3.873,9.775-3.873a8.462,8.462,0,0,1,7.332,4.173q2.594-4.173,4.587-4.173a5.493,5.493,0,0,1,3.233.79q2.068,1.5,1.466,2.632-9.437,19.325-9.7,24.063A12.951,12.951,0,0,0,161.369-10Zm-20.867.15q0,4.512,2.9,4.512,2.218,0,5.452-3.76a51.563,51.563,0,0,0,8.384-14.889,53.62,53.62,0,0,0,1.955-5.865,4.4,4.4,0,0,0-2.143-3.76,3.919,3.919,0,0,0-2.011-.414,6.721,6.721,0,0,0-3.121.978,15.1,15.1,0,0,0-3.459,2.669,23.083,23.083,0,0,0-3.121,4,31.885,31.885,0,0,0-2.538,5.019A31.059,31.059,0,0,0,140.5-9.851Zm60.645-21.957q-1.166,0-3.309,2.237t-3.722,4.079l-3.2,3.835L184.755-13.8q-2.181,4.136-3.421,6.88L179.3-2.557a10.794,10.794,0,0,1-1.372,2.275,2,2,0,0,1-1.579.658,5.258,5.258,0,0,1-1.917-.357,5.68,5.68,0,0,1-1.6-.921,3.44,3.44,0,0,1-1.429-2.632,6.624,6.624,0,0,1,.827-2.218L173.664-8.8q.677-1.354,1.579-3.459l2.105-5.151q4.437-11.091,4.437-14.325a2.96,2.96,0,0,0-1.128-2.557l-.752-.526a1.046,1.046,0,0,1-.376-.921,1.932,1.932,0,0,1,.508-1.26,4.6,4.6,0,0,1,1.335-1.053,7.413,7.413,0,0,1,3.4-.865,7.389,7.389,0,0,1,2.651.376A4.632,4.632,0,0,1,189-37.522a3.8,3.8,0,0,1,1.391,2.745,11.97,11.97,0,0,1-.357,2.876,27.929,27.929,0,0,1-.9,2.933q-.545,1.485-1.147,2.914t-1.09,2.481l-.752,1.617q-.3.6-.15.376,4.173-5.79,5.489-7.444l2.632-3.158a25.692,25.692,0,0,1,4.549-4.474q3.346-2.256,5.264-2.256a9.341,9.341,0,0,1,3.233.489,6.864,6.864,0,0,1,2.293,1.391,6.372,6.372,0,0,1,2.068,4.888,16.049,16.049,0,0,1-1.354,6.2q-1.354,3.233-2.35,5.245t-1.9,4.079q-2.82,6.279-2.82,9.136,0,1.278,2.03,1.278a6.123,6.123,0,0,0,2.876-.677,5.274,5.274,0,0,1,1.673-.677.7.7,0,0,1,.79.79q0,3.346-3.421,5.6A7.721,7.721,0,0,1,202.839.376a10.339,10.339,0,0,1-3.177-.414,6.039,6.039,0,0,1-2.237-1.316,7.1,7.1,0,0,1-2.218-5.564q0-4.361,2.745-10.9,1.993-4.474,2.82-6.128l1.278-2.669a9.508,9.508,0,0,0,1.166-3.8Q203.215-31.808,201.147-31.808ZM239.121-9.851q1.09,0,1.09,1.466a4.382,4.382,0,0,1-.752,2.406A10.535,10.535,0,0,1,235.4-1.842,12.785,12.785,0,0,1,228.443.376q-6.053,0-7.67-5.414-1.917-6.429,5.752-27.258-4.324-.376-4.7-1.5a2.305,2.305,0,0,1-.113-.733,1.719,1.719,0,0,1,.357-.921,5.28,5.28,0,0,1,.921-1.015,4.173,4.173,0,0,1,2.669-1.09h2.97q4.061-9.512,5.79-10.828a3.059,3.059,0,0,1,1.842-.6,4.7,4.7,0,0,1,1.692.263,3.748,3.748,0,0,1,1.2.752,3.392,3.392,0,0,1,1.2,2.519,4.22,4.22,0,0,1-.451,1.729l-2.782,6.053h.9q2.331,0,3.76-.038l2.143-.038q.714-.038,1.786-.038t1.072.79q0,4.963-11.73,4.963h-.3L232.2-25.416q-4.324,11.73-4.324,16.43a3.144,3.144,0,0,0,.6,2.049,2.812,2.812,0,0,0,2.256.733,7.748,7.748,0,0,0,3.008-.564,13.092,13.092,0,0,0,2.369-1.26q1.015-.7,1.748-1.26A2.219,2.219,0,0,1,239.121-9.851Z" transform="translate(6.405 63.39)" fill="#161616"/>
</svg>
