<?xml version="1.0" encoding="UTF-8"?>
<svg width="556px" height="390px" viewBox="0 0 556 390" version="1.1" xmlns="http://www.w3.org/2000/svg" xmlns:xlink="http://www.w3.org/1999/xlink">
    <!-- Generator: Sketch 55.2 (78181) - https://sketchapp.com -->
    <title>no-search</title>
    <desc>Created with Sketch.</desc>
    <defs>
        <linearGradient x1="50.0473806%" y1="99.997641%" x2="50.0473806%" y2="-0.0142947503%" id="linearGradient-1">
            <stop stop-color="#808080" stop-opacity="0.25" offset="0%"></stop>
            <stop stop-color="#808080" stop-opacity="0.12" offset="54%"></stop>
            <stop stop-color="#808080" stop-opacity="0.1" offset="100%"></stop>
        </linearGradient>
    </defs>
    <g id="Page-1" stroke="none" stroke-width="1" fill="none" fill-rule="evenodd">
        <g id="no-search">
            <path d="M342.42207,47.2483515 C318.564827,63.9063702 287.620047,62.8311615 260.502742,54.1626126 C233.385438,45.4940636 208.475895,30.0604452 182.054965,19.0922872 C160.033778,9.93201896 136.832191,3.90034772 113.129453,1.17385634 C79.4559203,-2.66911461 41.8517455,2.01241627 18.3916923,28.9543694 C-7.73521388,58.9418897 -5.72862622,113.041866 22.5183507,140.590875 C36.894597,154.594312 55.7173178,161.467416 72.1311016,172.399562 C88.5448856,183.331709 103.751622,201.4765 102.353716,222.56911 C101.058977,242.11836 86.0121489,257.099259 70.4391718,266.508622 C58.4048041,273.777857 43.5849421,281.715881 42.1354532,296.773947 C40.7323894,311.343284 53.1948979,322.759016 65.095149,329.251425 C103.916688,350.436639 151.754976,350.230857 190.442399,328.736971 C204.235754,321.045885 216.904595,310.839119 231.373691,304.881742 C269.364742,289.180608 311.229691,304.989778 351.459453,310.767095 C385.64274,315.651169 420.480216,313.122548 453.594248,303.353814 C473.515692,297.483895 493.51451,288.511817 507.50904,271.79721 C517.603879,259.743553 523.891874,244.495139 529.792996,229.426782 C536.086151,213.365531 542.136863,197.189383 547.945135,180.898342 C551.427003,171.123717 554.857287,161.153599 555.759995,150.689606 C557.390024,131.731978 550.519139,112.990421 541.161941,96.9909034 C518.945042,58.9727569 481.526568,32.2623082 441.002782,25.4766607 C400.478996,18.6910131 357.608173,31.9433468 326.178512,60.9431155" id="Path" fill="#464646" fill-rule="nonzero" opacity="0.504650298"></path>
            <g id="Group" opacity="0.1" transform="translate(276.000000, 52.000000)" fill="#000000" fill-rule="nonzero">
                <path d="M2.39731515,0.724026713 L0.433063381,115.016815 C0.433063381,115.016815 71.5379461,115.016815 132.037932,134.720685 L133.213389,19.2591106 C133.213389,19.2591106 36.1814143,-4.00800501 2.39731515,0.724026713 Z" id="Path"></path>
            </g>
            <path d="M275.982294,51.6273172 L274,164.534932 C274,164.534932 345.758029,164.534932 406.813747,184 L408,69.9377647 C408,69.9377647 310.076723,46.9526355 275.982294,51.6273172 Z" id="Path" fill="#F7F7FD" fill-rule="nonzero"></path>
            <g id="Group" opacity="0.1" transform="translate(112.000000, 55.000000)" fill="#000000" fill-rule="nonzero">
                <path d="M131.161494,0.894690154 L133.125746,115.187478 C133.125746,115.187478 62.0208628,115.187478 1.52603287,134.891348 L0.345419602,19.429774 C0.345419602,19.429774 97.3773946,-3.81148349 131.161494,0.894690154 Z" id="Path"></path>
            </g>
            <path d="M245.017706,54.6215255 L247,167.53408 C247,167.53408 175.241973,167.53408 114.191458,187 L113,72.9327743 C113,72.9327743 210.923278,49.9721852 245.017706,54.6215255 Z" id="Path" fill="#F7F7FD" fill-rule="nonzero"></path>
            <g id="Group" opacity="0.2" transform="translate(143.000000, 67.000000)" fill="#000000" fill-rule="nonzero">
                <path d="M69.3588289,0.772339475 L70.400787,61.3882011 C70.400787,61.3882011 32.7886417,61.3882011 0.818318296,71.8378007 L0.193143449,10.5979297 C0.193143449,10.5979297 51.4981426,-1.72369803 69.3588289,0.772339475 Z" id="Path"></path>
            </g>
            <g id="Group" opacity="0.1" transform="translate(452.000000, 96.000000)" fill="#000000" fill-rule="nonzero">
                <path d="M0.349127364,0.354538885 L0.349127364,112.722813 C0.349127364,112.722813 23.4531441,109.97899 71.9459082,169.885785 L76.2483894,57.5175113 C76.2483894,57.5175113 25.7789485,3.09322331 0.349127364,0.354538885 Z" id="Path"></path>
            </g>
            <path d="M450,94 L450,206.678972 C450,206.678972 473.439085,203.927562 522.635121,264 L527,151.321028 C527,151.321028 475.79862,96.7462569 450,94 Z" id="Path" fill="#F7F7FD" fill-rule="nonzero"></path>
            <g id="Group" opacity="0.1" transform="translate(0.000000, 96.000000)" fill="#000000" fill-rule="nonzero">
                <path d="M76.1559734,0.354538885 L76.1559734,112.722813 C76.1559734,112.722813 53.0724936,109.97899 4.589998,169.885785 L0.261845523,57.5175113 C0.261845523,57.5175113 50.7261522,3.09322331 76.1559734,0.354538885 Z" id="Path"></path>
            </g>
            <path d="M78,94 L78,206.678972 C78,206.678972 54.5801651,203.927562 5.39121905,264 L1,151.321028 C1,151.321028 52.1996347,96.7462569 78,94 Z" id="Path" fill="#F7F7FD" fill-rule="nonzero"></path>
            <g id="Group" opacity="0.2" transform="translate(296.000000, 74.000000)" fill="#000000" fill-rule="nonzero">
                <polygon id="Path" points="0.256652408 0.191964963 48.2147214 8.86151772 48.2147214 15.9227154 0.256652408 6.61500884"></polygon>
            </g>
            <polygon id="Path" fill="#FFFFFF" fill-rule="nonzero" points="203 142 155 150.817942 155 158 203 148.532982"></polygon>
            <polygon id="Path" fill="#FFFFFF" fill-rule="nonzero" points="296 88 385 106.039075 385 113 296 94.3318331"></polygon>
            <polygon id="Path" fill="#FFFFFF" fill-rule="nonzero" points="296 101 385 119.033961 385 126 296 107.326718"></polygon>
            <g id="Group" opacity="0.2" transform="translate(470.000000, 131.000000)" fill="#000000" fill-rule="nonzero">
                <polygon id="Path" points="0.262435562 0.158115247 0.262435562 6.28380594 19.4884649 21.4628696 20.3912432 16.209363"></polygon>
            </g>
            <polygon id="Path" fill="#FFFFFF" fill-rule="nonzero" points="471 190 471 196.325593 490.102998 212 491 206.575054"></polygon>
            <polygon id="Path" fill="#FFFFFF" fill-rule="nonzero" points="470.301516 141 470 147.068349 506 180 505.407364 173.06835"></polygon>
            <polygon id="Path" fill="#FFFFFF" fill-rule="nonzero" points="470 152 470 158.026468 506 193 506 185.161377"></polygon>
            <g id="Group" opacity="0.2" transform="translate(22.000000, 130.000000)" fill="#000000" fill-rule="nonzero">
                <polygon id="Path" points="35.994778 0.47158674 36.2924282 6.70067752 0.135770235 40.504637 0.731070496 33.3893776"></polygon>
            </g>
            <g id="Group" opacity="0.2" transform="translate(22.000000, 142.000000)" fill="#000000" fill-rule="nonzero">
                <polygon id="Path" points="36.2924282 0.119192253 36.2924282 6.04771128 0.135770235 40.4528142 0.135770235 32.7415936"></polygon>
            </g>
            <ellipse id="Oval" fill="#000000" fill-rule="nonzero" opacity="0.1" cx="105" cy="320" rx="30" ry="5"></ellipse>
            <path d="M35.2631668,292 C35.2631668,292 38.2608072,295.689455 33.8762803,301.24933 C29.4917531,306.809203 25.8771119,311.526362 27.3240606,315 C27.3240606,315 33.9363422,304.651028 39.3364633,304.507148 C44.7365844,304.36327 41.1874654,298.248436 35.2631668,292 Z" id="Path" fill="#191919" fill-rule="nonzero"></path>
            <path d="M35.1738306,292 C35.4395523,292.355001 35.6479485,292.744258 35.7923907,293.155391 C41.1053806,298.958027 43.9386069,304.37553 38.829963,304.514177 C34.0747818,304.637419 28.3365318,312.550569 27,314.548112 C27.0441829,314.697029 27.0994115,314.851083 27.160163,315 C27.160163,315 33.8483447,304.657959 39.3104516,304.514177 C44.7725587,304.370394 41.1661321,298.24425 35.1738306,292 Z" id="Path" fill="#000000" fill-rule="nonzero" opacity="0.1"></path>
            <path d="M41.3298702,295.785028 C41.3298702,297.008582 41.1844156,298 41.0025974,298 C40.8207792,298 40.6701298,297.008582 40.6701298,295.785028 C40.6701298,294.561473 40.8571428,295.136978 41.038961,295.136978 C41.2207792,295.136978 41.3298702,294.556637 41.3298702,295.785028 Z" id="Path" fill="#FFD037" fill-rule="nonzero"></path>
            <path d="M43.2890153,297.004583 C42.1186517,297.519447 41.0959016,297.830069 41.006279,297.702417 C40.9166566,297.574763 41.7970653,297.047133 42.9674288,296.532267 C44.1377924,296.017403 43.6738646,296.391851 43.763487,296.532267 C43.8531094,296.672685 44.4593788,296.493973 43.2890153,297.004583 Z" id="Path" fill="#FFD037" fill-rule="nonzero"></path>
            <path d="M20.7411968,292 C20.7411968,292 17.753729,295.676713 22.1229688,301.25854 C26.4922086,306.840365 30.1241393,311.52869 28.6768285,315 C28.6768285,315 22.0628917,304.657959 16.6614191,304.514177 C11.2599464,304.370394 14.8208768,298.24425 20.7411968,292 Z" id="Path" fill="#191919" fill-rule="nonzero"></path>
            <path d="M20.8254655,292 C20.5621496,292.356334 20.3539151,292.745257 20.2068521,293.155391 C14.8934048,298.958027 12.0599345,304.37553 17.1690185,304.514177 C21.9301324,304.637419 27.6633531,312.550569 29,314.548112 C28.9566226,314.701652 28.9031292,314.852565 28.8398234,315 C28.8398234,315 22.1510658,304.657959 16.6884884,304.514177 C11.225911,304.370394 14.8381715,298.24425 20.8254655,292 Z" id="Path" fill="#000000" fill-rule="nonzero" opacity="0.1"></path>
            <path d="M15.6701299,295.785028 C15.6701299,297.008582 15.8155844,298 15.9974026,298 C16.1792208,298 16.3298701,297.008582 16.3298701,295.785028 C16.3298701,294.561473 16.1428572,295.136978 15.961039,295.136978 C15.7792208,295.136978 15.6701299,294.556637 15.6701299,295.785028 Z" id="Path" fill="#FFD037" fill-rule="nonzero"></path>
            <path d="M13.7141034,297.004583 C14.8855705,297.519447 15.9040082,297.830069 15.9937151,297.702417 C16.083422,297.574763 15.2021832,297.047133 14.0307161,296.532267 C12.8592489,296.017403 13.3236143,296.391851 13.2339074,296.532267 C13.1442004,296.672685 12.5426362,296.493973 13.7141034,297.004583 Z" id="Path" fill="#FFD037" fill-rule="nonzero"></path>
            <path d="M17,313.288933 C17,313.288933 24.7931864,313.046028 27.1473783,311.340522 C29.50157,309.635019 39.1314319,307.603919 39.7149062,310.337893 C40.2983805,313.071868 51.4249806,323.925076 42.6272036,323.99743 C33.8294269,324.069784 22.1853102,322.602019 19.8412659,321.144586 C17.4972215,319.687156 17,313.288933 17,313.288933 Z" id="Path" fill="#A8A8A8" fill-rule="nonzero"></path>
            <path d="M42.7855377,322.119441 C33.985671,322.186991 22.3387887,320.816662 19.9941877,319.455984 C18.2078248,318.423413 17.4973396,314.712911 17.2588196,313 L17,313 C17,313 17.5074894,318.978299 19.8368659,320.334153 C22.1662422,321.690006 33.8283493,323.065159 42.6282159,322.997609 C45.1656631,322.997609 46.0486945,322.119441 45.9979457,320.845614 C45.6477781,321.622455 44.6784731,322.104965 42.7855377,322.119441 Z" id="Path" fill="#000000" fill-rule="nonzero" opacity="0.2"></path>
            <ellipse id="Oval" fill="#000000" fill-rule="nonzero" opacity="0.1" cx="309.5" cy="243" rx="48.5" ry="8"></ellipse>
            <path d="M298.949845,130.470522 C298.731533,130.964812 298.571687,131.4859 298.473956,132.021898 C298.445403,132.156654 298.41685,132.298147 298.388297,132.446378 C298.102762,133.992701 297.912407,135.938237 297.81247,137.070185 C297.764882,137.63616 297.741087,138 297.741087,138 C297.741087,138 287.419048,137.267266 289.208391,135.42785 C289.669721,134.920037 289.997852,134.292855 290.16017,133.608647 C290.212518,133.411566 290.255347,133.214486 290.293419,133.012353 C290.378724,132.553706 290.434375,132.089399 290.459981,131.622684 C290.459981,131.506457 290.459981,131.39023 290.459981,131.26895 C290.483254,130.511017 290.449835,129.752318 290.360043,129 C290.360043,129 293.715063,129 296.246795,129.28804 C297.950479,129.495227 299.278209,129.854015 298.949845,130.470522 Z" id="Path" fill="#D38884" fill-rule="nonzero"></path>
            <path d="M279.803511,183.998718 C276.215264,183.87512 278.861536,175.949425 279.274257,174.883396 C279.686978,173.817366 278.662458,171.206367 278.662458,171.206367 C278.662458,171.206367 277.448572,163.656614 277.448572,163.162224 C277.386586,162.13298 277.25023,161.110299 277.040708,160.103184 C276.914394,159.075041 277.083627,158.030401 277.526261,157.105942 C277.938982,156.421005 277.87586,153.676109 277.87586,153.676109 L277.87586,150.122678 L278.677025,149 L280.721209,151.05996 L281.289307,151.626449 L282.289551,155.602171 L281.935094,161.29796 L281.745729,166.844402 L282.983893,174.517753 C282.983893,174.517753 283.416036,184.127465 279.803511,183.998718 Z" id="Path" fill="#D38884" fill-rule="nonzero"></path>
            <polygon id="Path" fill="#000000" fill-rule="nonzero" opacity="0.1" points="282 151 279 149.649484 279 149.123711 279.780953 148 281.790476 150.051546"></polygon>
            <path d="M280.457143,144 C280.110045,144.926968 279.858508,145.89292 279.707144,146.88016 C279.567633,147.827334 279.330422,148.754399 279,149.643808 L282,151 L280.457143,144 Z" id="Path" fill="#4C4981" fill-rule="nonzero"></path>
            <path d="M280.457143,144 C280.110045,144.926968 279.858508,145.89292 279.707144,146.88016 C279.567633,147.827334 279.330422,148.754399 279,149.643808 L282,151 L280.457143,144 Z" id="Path" fill="#000000" fill-rule="nonzero" opacity="0.05"></path>
            <path d="M309,221.307292 L308.686094,221.93366 C308.686094,221.93366 308.345129,224.009766 308.345129,224.060281 C308.345129,224.110794 307.360115,225.494866 307.360115,225.494866 L304.886761,226 L303.836803,225.878769 C303.780894,225.308105 303.6869,224.741253 303.555371,224.181512 C303.517485,224.02492 303.479599,223.863278 303.43089,223.701635 C303.061261,222.406655 302.478858,221.172957 301.704412,220.044453 C301.704412,220.044453 299.869692,215.821519 299.214821,215.270921 C298.559951,214.720323 296.064946,209.148678 296.330141,207.805018 C296.470857,207.06752 296.357202,204.592355 296.227311,202.531403 C296.119067,200.849302 296,199.434922 296,199.434922 L302.229392,196 L302.954621,197.065836 L303.387593,197.697255 C303.387593,197.697255 303.387593,197.818488 303.360532,198.020542 L303.360532,198.096312 C303.288929,198.955369 303.107228,199.803311 302.819317,200.621989 C302.819317,200.621989 302.353871,203.743729 302.819317,204.294326 C303.284762,204.844924 304.767694,212.204748 305.097836,215.609362 C305.097836,215.715441 305.097836,215.821519 305.097836,215.917495 C305.227726,217.483414 306.266861,218.877589 307.311406,219.897964 L307.311406,219.897964 C307.376352,219.968682 307.44671,220.034349 307.517068,220.100018 C307.981042,220.533795 308.476529,220.937178 309,221.307292 L309,221.307292 Z" id="Path" fill="#D38884" fill-rule="nonzero"></path>
            <path d="M303.423597,225.883327 L304.549322,226 L307.20116,225.513862 C307.20116,225.513862 308.257254,224.176982 308.257254,224.13323 C308.257254,224.089478 308.622822,222.086586 308.622822,222.086586 L308.959381,221.483775 L309,221.410855 C308.351671,221.034603 307.742181,220.613424 307.177949,220.151756 L307.177949,220.151756 C307.11412,220.103143 307.050289,220.054528 306.992262,220.001053 C306.934235,219.947579 307.369438,221.945608 305.350097,222.815795 C304.369438,223.238736 303.562862,223.564448 303,223.78807 L303.423597,225.883327 Z" id="Path" fill="#000000" fill-rule="nonzero" opacity="0.1"></path>
            <path d="M309,223.406327 L308.640884,224.082725 C308.640884,224.082725 308.292817,226.082725 308.292817,226.131387 C308.292817,226.180048 307.287292,227.513382 307.287292,227.513382 L304.762431,228 L303.309391,227.849149 C303.309391,227.591241 303.259668,227.226278 303.187845,226.783455 C303.143646,226.515814 303.082872,226.218978 303,225.89781 C303.552486,225.678831 304.408838,225.318735 305.508288,224.817518 C307.436463,223.946472 307.071822,222 307.071822,222 C307.48896,222.366067 307.929848,222.710523 308.392265,223.03163 C308.657458,223.197079 308.872927,223.328468 309,223.406327 Z" id="Path" fill="#CEDDF9" fill-rule="nonzero"></path>
            <path d="M309,222.452497 L308.629277,223.269343 C308.629277,223.269343 308.26996,225.684623 308.26996,225.743389 C308.26996,225.802154 307.231939,227.41234 307.231939,227.41234 L304.625474,228 L303.125475,227.817826 C303.125475,227.506367 303.074143,227.065621 303,226.530852 C303.318948,226.545838 303.635879,226.591082 303.946768,226.666013 C303.946768,226.666013 307.505703,227.4476 307.676805,224.544563 C307.779467,222.899119 308.110266,222.252694 308.372623,222 C308.646387,222.199803 308.868821,222.358472 309,222.452497 Z" id="Path" fill="#000000" fill-rule="nonzero" opacity="0.1"></path>
            <path d="M308.981701,221.780746 C308.981701,221.780746 308.17477,221.606428 308.013383,224.13404 C307.851998,226.661651 304.608656,225.984888 304.608656,225.984888 C304.608656,225.984888 303.015618,225.595236 303,226.246366 C303.053176,226.848464 303.197049,227.439416 303.426893,227.999799 C303.426893,227.999799 303.5206,229.507138 303.822549,229.866028 C304.124498,230.224918 303.931874,231.557939 303.931874,231.557939 C303.931874,231.557939 304.05682,232.552577 306.566115,231.557939 C306.566115,231.557939 308.804697,231.101636 310.663242,228.358689 C310.725713,228.266404 310.444589,227.984419 312.068863,227.410194 C313.693137,226.835971 318.316071,223.154782 317.982886,221.355206 C317.909346,220.7464 317.475694,220.238749 316.879214,220.0632 C316.388082,219.934211 315.86495,220.00438 315.426738,220.258026 C314.987849,220.491923 314.533967,220.697438 314.067969,220.873266 C313.449251,221.11996 312.79643,221.273777 312.131336,221.329571 C311.621317,221.372412 311.117142,221.466907 310.6268,221.611556 C310.103833,221.81251 309.535541,221.870957 308.981701,221.780746 Z" id="Path" fill="#CC8294" fill-rule="nonzero"></path>
            <path d="M291.840136,205.444669 C291.481682,205.731275 291.172377,206.070808 290.923666,206.450705 C290.007196,207.803824 289.45523,209.695172 288.84078,210.510061 C288.038869,211.566398 287.799336,213.618714 287.799336,213.618714 C287.585841,214.966801 284.628141,222.170021 283.82623,223.447685 C283.024319,224.725352 281.909975,228.201208 281.909975,228.201208 C281.22783,229.026156 281.269487,230.253521 281.337182,230.837021 C281.337182,230.937625 281.337182,231.018108 281.368425,231.07344 C281.399668,231.128771 281.368425,231.169014 281.368425,231.169014 L281.368425,231.204224 L280.27491,233 L276.79649,232.532193 L275,231.35513 C275.147116,231.124301 275.277605,230.88396 275.39054,230.635815 C276.353875,228.563381 277.036021,224.861166 277.036021,224.861166 C277.036021,224.861166 278.004563,220.635815 277.931661,219.6499 C277.956087,218.304679 278.051677,216.961547 278.21806,215.625755 C278.21806,215.625755 280.957055,207.552314 281.831866,206.244467 C282.196477,205.727661 282.421978,205.131211 282.487976,204.509055 C282.504881,204.383832 282.504881,204.257016 282.487976,204.131792 L283.664806,203 C283.664806,203 293.350229,204.282696 291.840136,205.444669 Z" id="Path" fill="#D38884" fill-rule="nonzero"></path>
            <path d="M280,231.276475 C280,231.276475 280,231.401408 280,231.607547 L280,231.769958 L278.969745,234 L275.692559,233.419064 L274,231.957358 C274.138604,231.670707 274.261545,231.372246 274.367947,231.06409 C275.192149,230.764253 277.076041,231.613792 277.076041,231.613792 C277.076041,231.613792 279.11202,232.107275 279.970563,231.313955 C279.970563,231.307709 279.980375,231.288968 280,231.276475 Z" id="Path" fill="#000000" fill-rule="nonzero" opacity="0.1"></path>
            <path d="M280.163077,236.104527 L276.427258,237 L273,234.457302 L273.176322,233.025652 C273.415558,232.878631 273.627998,232.691689 273.80447,232.472891 C274.054556,232.178271 274.225281,231.824319 274.300375,231.444757 C274.498737,230.388984 277.755182,231.544252 277.755182,231.544252 C277.755182,231.544252 280.135528,231.997517 281.061218,231.240235 C280.996215,231.934375 281.055937,232.634586 281.23754,233.307559 C281.325787,233.635478 281.51948,233.924997 281.788545,234.131173 C282.741786,234.788957 280.163077,236.104527 280.163077,236.104527 Z" id="Path" fill="#CEDDF9" fill-rule="nonzero"></path>
            <path d="M280.163077,235.208791 L276.427258,236 L273,233.753357 L273.176322,232.488401 C273.415558,232.358501 273.627998,232.193324 273.80447,232 C274.052422,232 274.322415,232 274.553838,232 C275.104843,232.048842 276.482358,234.222222 276.482358,234.222222 C279.865536,234.422467 280.890407,233.440782 281.23754,232.71795 C281.325787,233.007686 281.51948,233.263495 281.788545,233.445666 C282.741786,234.046398 280.163077,235.208791 280.163077,235.208791 Z" id="Path" fill="#000000" fill-rule="nonzero" opacity="0.1"></path>
            <path d="M276.148133,234.467897 C276.148133,234.467897 274.920502,232.085669 274.401504,232.037489 C273.962698,232.011052 273.522853,232.011052 273.084047,232.037489 C273.084047,232.037489 271.726668,235.490381 271.22763,235.784814 C270.728595,236.079247 270,237.733423 270,237.733423 C270,237.733423 273.593066,241.480749 277.066362,240.747343 C278.174566,240.764455 279.264133,241.055742 280.250215,241.598521 C281.857113,242.497879 288.569158,241.818007 289.387579,240.238778 C289.996402,239.05034 290.240932,238.188456 289.701971,237.562117 C289.375104,237.198967 288.904872,237.0275 288.439407,237.101732 C287.596036,237.224858 285.699697,237.203445 284.037905,235.013936 C284.037905,235.013936 280.973819,232.00537 280.724301,232 C280.474782,231.994663 280.928905,234.81051 276.148133,234.467897 Z" id="Path" fill="#CC8294" fill-rule="nonzero"></path>
            <path d="M303,198.217661 L302.974377,198.250194 C302.75915,198.499613 301.242314,200.261814 300.781113,200.386523 C300.018539,200.691096 299.272627,201.040465 298.546852,201.432997 C298.546852,201.432997 297.614203,202.750583 296.871156,202.815647 C296.646496,202.849971 296.426373,202.911837 296.215227,203 C296.112738,201.194423 296,199.67622 296,199.67622 L301.898243,196 L302.584918,197.144074 C302.738652,197.604957 302.912883,198.033308 302.969253,198.168861 L303,198.217661 Z" id="Path" fill="#000000" fill-rule="nonzero" opacity="0.1"></path>
            <path d="M281.043628,174.166723 C281.043628,174.166723 278.695465,177.129185 281.043628,181.060535 C282.306602,183.270581 283.937618,185.26386 285.870991,186.960095 L293.869419,203 C293.869419,203 295.965994,201.89415 296.731243,201.833278 C297.496493,201.772405 298.445193,200.54481 298.445193,200.54481 C299.187235,200.175475 299.950201,199.846919 300.730458,199.560705 C301.254601,199.43896 303,197.531621 303,197.531621 C303,197.531621 302.12468,195.690227 302.318612,195.198174 C302.512546,194.706122 301.747297,193.473454 301.747297,193.473454 C301.509275,192.857309 301.333734,192.220222 301.223152,191.571188 C301.223152,191.063917 300.395006,189.912412 300.395006,189.912412 C300.395006,189.912412 299.572102,188.679744 299.572102,188.005073 C299.572102,187.330403 298.340364,184.667231 298.340364,184.667231 L298.020636,173 L281.043628,174.166723 Z" id="Path" fill="#CEDDF9" fill-rule="nonzero"></path>
            <path d="M303,197.531621 C303,197.531621 301.239266,199.433887 300.730959,199.560705 C299.950873,199.846919 299.188076,200.175475 298.446197,200.54481 C298.446197,200.54481 297.492466,201.772405 296.732627,201.833278 C296.185309,201.943369 295.656297,202.126017 295.160543,202.376058 C294.479306,202.675347 293.866194,203 293.866194,203 L285.864287,186.960095 C285.163905,186.369044 284.513761,185.724423 283.920145,185.032466 C282.836461,183.796228 281.871732,182.466724 281.037991,181.060535 C280.120933,179.634687 279.795187,177.925741 280.126183,176.27697 C280.274802,175.521273 280.585417,174.804126 281.037991,174.171796 L286.728934,173.781197 L298.063657,173 L298.157982,176.454515 L298.367593,184.667231 C298.367593,184.667231 298.551003,185.07812 298.781574,185.6209 C299.141756,186.375502 299.407403,187.1691 299.572857,187.984782 C299.572857,188.664525 300.395582,189.892121 300.395582,189.892121 C300.395582,189.892121 301.223545,191.058844 301.223545,191.550897 C301.33467,192.201464 301.510152,192.840183 301.747573,193.458235 C301.747573,193.458235 302.512654,194.685831 302.324004,195.172811 C302.135353,195.659791 303,197.531621 303,197.531621 Z" id="Path" fill="#000000" fill-rule="nonzero" opacity="0.05"></path>
            <path d="M291.832622,205.119104 C291.45659,205.364512 291.132117,205.65524 290.87121,205.980528 C287.271377,206.18727 283.087052,204.688392 282,204.292136 C282.017733,204.184912 282.017733,204.076328 282,203.969103 L283.23454,203 C283.23454,203 293.416767,204.124159 291.832622,205.119104 Z" id="Path" fill="#000000" fill-rule="nonzero" opacity="0.1"></path>
            <path d="M301,179.070517 C301,179.070517 300.498945,180.823417 300.333597,181.573183 C300.168249,182.322949 299.787446,186.02524 299.787446,186.02524 L299.577003,187.059399 L296.109704,204.123032 L295.353112,207.830494 C294.020306,208.585431 290.68328,206.573991 290.68328,206.573991 C286.795095,207.018678 282,204.448792 282,204.448792 C282,204.448792 282.786656,201.816856 282.606276,200.503473 C282.425896,199.19009 283.698576,198.119736 283.698576,198.119736 C283.397944,196.930452 284.485233,191.72863 284.485233,191.72863 C284.485233,191.72863 284.73075,189.789581 285.642668,189.288013 C286.554588,188.786446 285.522416,188.03668 285.276899,187.591991 C285.190738,187.209377 285.220472,186.808689 285.362078,186.444074 C285.440929,186.154762 285.534591,185.869968 285.642668,185.590893 C283.327797,183.201984 282.972047,179.468668 282.967037,177.395178 C282.960698,176.889294 282.982445,176.383451 283.032172,175.880134 L288.042722,174.975245 L298.99077,173 L300.108122,176.547167 L300.108122,176.547167 L300.388712,177.436545 L301,179.070517 Z" id="Path" fill="#CEDDF9" fill-rule="nonzero"></path>
            <path d="M298.947755,130.422655 C298.720345,130.899218 298.553839,131.401618 298.452035,131.918392 C298.422291,132.048315 298.392548,132.184734 298.362805,132.327649 C297.316834,132.995128 296.672399,133 295.333953,133 C294.872933,133 294.615157,132.132765 294.178923,132.025579 C294.178923,132.025579 293.524574,129.706456 293.341156,131.660171 C292.082027,131.406821 290.996398,132.371498 290.104101,131.528624 L290.104101,131.528624 C290.104101,131.416565 290.104101,131.304507 290.104101,131.187576 C290.128345,130.456826 290.093535,129.725337 290,129 C290,129 293.494829,129 296.132063,129.27771 C297.906743,129.482339 299.289802,129.828258 298.947755,130.422655 Z" id="Path" fill="#000000" fill-rule="nonzero" opacity="0.1"></path>
            <path d="M304,126.498092 C303.99645,128.750776 302.982197,130.883106 301.236471,132.30748 C299.490743,133.731855 297.197799,134.297935 294.989496,133.849728 L294.989496,133.849728 C291.600891,133.151673 289.128929,130.22796 289.004873,126.771411 C288.880815,123.314862 291.136822,120.221561 294.466672,119.28252 C297.796521,118.34348 301.336975,119.802139 303.03812,122.813939 C303.675988,123.936558 304.007597,125.207027 304,126.498092 Z" id="Path" fill="#D38884" fill-rule="nonzero"></path>
            <path d="M299,137.153049 C298.945999,137.668585 298.918997,138 298.918997,138 C298.918997,138 287.206005,137.332566 289.236474,135.657077 C289.75997,135.194521 290.132319,134.623232 290.31651,134 L295.39808,134.708861 C295.39808,134.708861 296.834528,135.657077 297.946965,136.550058 C298.263755,136.791396 298.618112,136.994308 299,137.153049 Z" id="Path" fill="#000000" fill-rule="nonzero" opacity="0.1"></path>
            <path d="M301,176.974028 C300.513095,177.028063 300.018087,176.99758 299.545918,176.884484 C299.341456,176.830053 299.144711,176.757134 298.959183,176.667021 C298.030612,176.202248 294.943877,176.773621 294.943877,176.773621 C294.943877,176.773621 286.535714,177.238394 286.163265,176.773621 C285.954082,176.50499 284.469388,176.543366 283.255103,176.624381 C282.744899,176.658493 282.311226,176.701133 282,176.726717 C282.144698,176.091499 282.44712,175.488685 282.887756,174.957166 L288.428571,174.62884 L299.576531,173 L300.714286,175.925089 L300.714286,175.925089 C300.788019,176.278585 300.883382,176.62869 301,176.974028 L301,176.974028 Z" id="Path" fill="#000000" fill-rule="nonzero" opacity="0.1"></path>
            <path d="M295.67397,134.980994 L289.66341,134 C289.44848,134.476616 289.033868,134.835294 288.529437,134.980994 C287.731081,135.163034 284.156273,137.003661 282.554472,139.208368 L280.952673,141.418132 C280.952673,141.418132 279.655978,143.010983 280.088211,144.295377 C280.520442,145.579771 281.013695,149.933562 281.013695,149.933562 L281.628989,154.772793 C281.628989,154.772793 282.798556,158.266951 282.432431,159.799122 C282.066305,161.331292 282.615494,167.763374 282.615494,167.763374 L281.384905,175.727627 C281.384905,175.727627 285.569923,175.17645 285.961474,175.727627 C286.353025,176.278804 294.712891,175.727627 294.712891,175.727627 C294.712891,175.727627 297.763937,175.050033 298.714845,175.60121 C299.336663,175.93471 300.048679,176.063927 300.748877,175.970347 C300.748877,175.970347 300.01154,173.442013 300.438687,172.051429 C300.865833,170.660845 300.748877,168.066774 300.748877,168.066774 C300.748877,168.066774 301.364171,164.329897 301.053981,163.65736 C300.743792,162.984823 301.735382,160.532339 301.735382,160.532339 L305,143.4408 C305,143.4408 304.603364,140.376459 302.859183,139.334785 C301.115002,138.293112 299.147078,137.984655 298.099551,137.008718 C297.052026,136.032781 295.67397,134.980994 295.67397,134.980994 Z" id="Path" fill="#4C4981" fill-rule="nonzero"></path>
            <path d="M297,152.423159 L297,154.500764 L299.060611,159.72594 L299.80641,164.571953 C299.80641,164.571953 301.148844,168.031165 301.148844,169.246564 C301.148844,170.461962 304.424833,176.232509 304.424833,176.232509 C304.424833,176.232509 305.319789,178.185458 304.872311,178.559427 C304.424833,178.933395 300.546682,187.243814 305.424754,186.994502 C310.302824,186.745189 308.772557,178.060802 308.772557,178.060802 L308.104101,174.284755 C308.104101,174.284755 307.164947,164.842041 307.164947,164.151238 C307.164947,164.151238 305.960623,160.125879 305.828037,159.242897 C305.69545,158.359915 304.82259,153.893065 304.82259,153.893065 L304.087841,151 L297,152.423159 Z" id="Path" fill="#D38884" fill-rule="nonzero"></path>
            <polygon id="Path" fill="#000000" fill-rule="nonzero" opacity="0.1" points="296 158 289.132677 161.846939 287 165 289.841832 162.173469"></polygon>
            <path d="M293,165 C293,165 290.029704,167.206961 288.633665,167.206961 C287.237623,167.206961 284,171 284,171 C284,171 288.58911,167.613358 288.950495,167.720602 C289.311882,167.827846 293,165 293,165 Z" id="Path" fill="#000000" fill-rule="nonzero" opacity="0.1"></path>
            <path d="M286.913124,167 C286.913124,167 284.475552,169.690941 285.103346,169.98171 C285.731141,170.27248 289,167 289,167 L286.913124,167 Z" id="Path" fill="#000000" fill-rule="nonzero" opacity="0.1"></path>
            <path d="M298.139711,158 C298.139711,158 295.381723,161.045859 296.12815,160.999476 C296.874577,160.953092 299,159.216282 299,159.216282 L298.139711,158 Z" id="Path" fill="#000000" fill-rule="nonzero" opacity="0.1"></path>
            <path d="M299,161 C299,161 295.884503,163.339161 296.003314,163.93268 C296.122127,164.526198 299,161 299,161 Z" id="Path" fill="#000000" fill-rule="nonzero" opacity="0.1"></path>
            <path d="M300.731071,162 C300.731071,162 298.576753,164.441873 299.498097,164.949163 C300.419439,165.456454 300.731071,162 300.731071,162 Z" id="Path" fill="#000000" fill-rule="nonzero" opacity="0.1"></path>
            <path d="M297.003473,154 C297.003473,154 295.634895,156.733485 296.633899,156.917996 C297.632903,157.102506 297.731071,156.917996 297.731071,156.917996 L297.003473,154 Z" id="Path" fill="#000000" fill-rule="nonzero" opacity="0.1"></path>
            <path d="M297.731071,147 C297.474185,148.371495 297.121723,149.710268 296.677981,151 C296.512801,150.342742 296.376239,149.674098 296.268929,148.997195 C296.703057,148.269859 297.192909,147.60075 297.731071,147 L297.731071,147 Z" id="Path" fill="#000000" fill-rule="nonzero" opacity="0.1"></path>
            <path d="M302,122.812902 C301.879324,123.097544 301.721526,123.361993 301.531425,123.598173 C301.212255,123.909419 300.928742,124.260938 300.686959,124.6452 C300.496662,125.219334 300.394053,125.823146 300.383157,126.432943 C300.290472,127.034427 299.940326,127.702742 299.35332,127.71945 C299.064534,127.69307 298.783973,127.602035 298.529451,127.452124 C298.270598,127.306962 297.960638,127.317505 297.71073,127.47997 C297.548193,127.658799 297.454355,127.897608 297.448121,128.148286 C297.376941,128.671782 297.349369,129.201134 297.365734,129.729965 C297.365734,129.941598 297.365734,130.147662 297.39663,130.359295 C297.540481,131.02487 297.502922,131.721271 297.288497,132.364241 C297.019808,132.829772 296.613243,133.183131 296.13508,133.366714 C295.615855,133.598373 295.073146,133.762879 294.518236,133.856812 L294.518236,133.856812 C293.461019,133.997156 292.394278,134.034435 291.33089,133.968197 C291.232724,133.971074 291.134927,133.954074 291.042537,133.918074 C290.99703,133.8985 290.955165,133.8702 290.918957,133.834535 C291.036712,133.201725 291.100487,132.558555 291.109476,131.913128 C289.157327,129.863266 288.490333,126.770012 289.402657,123.997588 C290.31498,121.225164 292.638891,119.283282 295.349472,119.028372 C298.060054,118.773462 300.658964,120.25239 302,122.812902 Z" id="Path" fill="#000000" fill-rule="nonzero" opacity="0.1"></path>
            <path d="M299.069409,118.008698 C298.432099,117.941276 297.830767,118.283573 297.203735,118.423604 C295.913698,118.708852 294.592821,118.117611 293.266806,118.122797 C292.12683,118.188112 291.017877,118.522046 290.02886,119.097826 C289.229001,119.479174 288.49909,119.994756 287.870228,120.622605 C287.238616,121.260687 286.871135,122.117286 286.84231,123.018687 C286.929954,123.535237 286.914226,124.064265 286.796053,124.574584 C286.662662,124.83182 286.504269,125.075044 286.32321,125.30067 C285.991156,125.838676 285.910336,126.496804 286.102208,127.100324 C286.367915,127.691017 286.727258,128.234056 287.166105,128.708085 C288.019278,129.812772 288.553794,131.135285 289.319595,132.307394 C289.653661,132.816268 290.028386,133.296738 290.440027,133.744006 C290.507345,133.823287 290.589413,133.888482 290.681587,133.9359 C290.77225,133.968122 290.868264,133.982215 290.964265,133.97739 C292.588378,134.024067 294.269026,134.060372 295.764648,133.417267 C296.243762,133.24965 296.650568,132.91978 296.915918,132.483729 C297.131652,131.88548 297.170927,131.236958 297.02899,130.616652 C296.960907,129.925811 296.97644,129.229175 297.075246,128.542123 C297.081736,128.310264 297.175457,128.089595 297.337366,127.92495 C297.587181,127.768612 297.900698,127.758726 298.159701,127.899018 C298.413777,128.034071 298.691208,128.118586 298.976896,128.147962 C299.537113,128.147962 299.891745,127.504858 300.004816,126.944735 C299.879055,125.919403 300.318733,124.90671 301.150945,124.304896 C301.931786,123.304903 302.19333,121.989145 301.855071,120.762636 C301.485019,119.595713 300.354309,118.138356 299.069409,118.008698 Z" id="Path" fill="#1E1637" fill-rule="nonzero"></path>
            <path d="M305.957685,146.128373 C305.818515,147.000902 305.818515,147.890258 305.957685,148.762786 C305.894998,149.468809 305.957685,153.362472 305.957685,153.362472 C303.868127,152.719675 298.555427,154 298.555427,154 L297.923336,152.087416 C297.56254,151.615534 297.29316,151.079291 297.129303,150.506768 C296.931024,149.887705 296.767088,149.257983 296.638258,148.620528 C296.362404,147.29575 296.15491,145.957424 296.016614,144.610951 C295.750196,142.582453 298.743488,140.39589 301.010658,139.18406 C303.277826,137.972229 305.262907,143.140948 305.262907,143.140948 C305.262907,143.140948 306.208431,145.127296 305.957685,146.128373 Z" id="Path" fill="#000000" fill-rule="nonzero" opacity="0.1"></path>
            <path d="M305.957685,146.134339 C305.818961,147.006827 305.818961,147.896032 305.957685,148.768519 C305.894998,149.469211 305.957685,153.362528 305.957685,153.362528 C303.868127,152.725057 298.555427,154 298.555427,154 L297.923336,152.087586 C297.561467,151.616429 297.29198,151.080018 297.129303,150.507078 C296.931014,149.889856 296.767077,149.261943 296.638258,148.626274 C296.362808,147.301538 296.155318,145.963352 296.016614,144.617052 C295.750196,142.583465 298.743488,140.402365 301.010658,139.185373 C303.277826,137.968382 305.262907,143.141911 305.262907,143.141911 C305.262907,143.141911 306.208431,145.112278 305.957685,146.134339 Z" id="Path" fill="#4C4981" fill-rule="nonzero"></path>
            <path d="M301.858174,120.064271 C301.750704,119.689331 301.595922,119.331361 301.397991,119 C301.429015,119.092783 301.460039,119.180107 301.485892,119.27289 C301.826191,120.5636 301.563069,121.948231 300.777523,123.000568 C299.940291,123.633884 299.497963,124.699586 299.624482,125.778589 C299.536583,126.368032 299.179812,127.01751 298.590367,127.039341 C298.300381,127.01349 298.018654,126.924277 297.763073,126.777367 C297.503146,126.635111 297.191897,126.645443 296.940952,126.804656 C296.777738,126.979905 296.68351,127.213932 296.677251,127.459592 C296.577386,128.182567 296.561758,128.915728 296.630716,129.642713 C296.687593,130.308564 296.811687,131.023536 296.516964,131.612979 C296.244441,132.066634 295.837124,132.412124 295.358754,132.595383 C293.854113,133.27215 292.163334,133.233946 290.52943,133.184826 C290.432518,133.188016 290.33594,133.171335 290.245047,133.135705 C290.15017,133.08942 290.066927,133.020248 290.00203,132.933767 C289.583617,132.466979 289.206331,131.960954 288.874844,131.421956 C288.104427,130.188493 287.566685,128.802211 286.708369,127.634242 C286.475694,127.317689 286.191311,127.006595 286,126.673669 L286,126.739162 C286.263602,127.362941 286.625502,127.935022 287.070309,128.431081 C287.923456,129.593592 288.466367,130.985332 289.231613,132.218795 C289.567845,132.755655 289.946659,133.261409 290.36397,133.730606 C290.429798,133.813884 290.510646,133.882527 290.601818,133.932545 C290.693119,133.966054 290.789637,133.980873 290.886199,133.976207 C292.520103,134.025327 294.216055,134.063532 295.715523,133.386764 C296.197524,133.210373 296.606783,132.863236 296.873733,132.40436 C297.090767,131.774796 297.130279,131.092327 296.987487,130.439552 C296.924241,129.712347 296.939853,128.979897 297.034022,128.256431 C297.044943,128.013479 297.13858,127.782853 297.297721,127.606953 C297.549042,127.442431 297.864449,127.432027 298.125015,127.579664 C298.38062,127.721786 298.659724,127.810724 298.947135,127.841638 C299.515899,127.841638 299.867499,127.164871 299.981253,126.575428 C299.989646,125.97757 300.092757,125.385408 300.286316,124.823474 C300.527547,124.445638 300.812395,124.100966 301.134292,123.797407 C301.925338,122.745866 302.1942,121.359314 301.858174,120.064271 Z" id="Path" fill="#000000" fill-rule="nonzero" opacity="0.2"></path>
            <path d="M350.909022,121.09256 L346.511902,130.374082 C346.511902,130.374082 345.865567,132.118159 345.448247,132.441698 C345.030929,132.765237 343.183526,138.275509 343.183526,138.275509 L338.465785,145.49447 L338.465785,145.49447 L338.145161,146 L336.297761,145.49447 L335,140.681829 L335.076339,139.286568 L335.076339,139.109632 C335.076339,139.109632 337.987394,136.076455 338.63882,135.848967 C338.63882,135.848967 339.147744,135.909631 340.114704,133.558918 C341.081663,131.208206 341.967194,130.702676 341.967194,130.702676 L342.47612,129.004097 L347.936895,120.364597 C347.936895,120.364597 352.517229,113.848322 353.764097,116.73995 C355.010965,119.631579 350.909022,121.09256 350.909022,121.09256 Z" id="Path" fill="#FFD2C6" fill-rule="nonzero"></path>
            <path d="M333.981792,188.710763 C333.966529,188.870073 333.914226,189.023957 333.828815,189.160852 C333.301303,189.90759 330.331423,205.103206 330.331423,205.103206 C330.568802,206.126136 329.898866,208.171995 329.466308,209.102862 C329.033749,210.033727 328.073681,214.861954 328.073681,214.861954 C328.073681,214.861954 327.836302,225.275375 327.219115,226.901833 C326.601929,228.52829 327.414294,232.01648 327.414294,232.01648 C327.356269,233.617365 328.347987,235.315427 328.938798,236.174689 L329.054851,236.338357 C329.244754,236.604318 329.371355,236.757758 329.371355,236.757758 C329.533955,237.068118 329.762234,237.34174 330.041293,237.560758 L330.178445,237.66305 C330.993596,238.191083 331.904741,238.56424 332.863471,238.762701 L332.958422,238.762701 C333.338229,238.844534 333.591435,238.880336 333.591435,238.880336 L333.828815,240.13854 L331.291492,240.650004 L326.448951,240.972227 C326.448951,240.972227 320.741296,241.396742 322.03897,238.926368 C322.128811,238.761461 322.206377,238.590538 322.271074,238.414905 L322.271074,238.414905 C322.32135,238.294365 322.365365,238.171459 322.402952,238.046649 C323.183665,235.678567 322.656156,232.799021 322.656156,232.799021 L321.553661,224.390542 C319.733752,216.580476 322.983213,207.89069 322.983213,207.89069 C322.983213,207.89069 322.703632,207.195097 323.326094,205.430545 C323.948554,203.665991 323.326094,199.804432 323.326094,199.804432 C323.326094,199.804432 322.993762,194.832996 322.561205,192.37285 C322.390726,191.336487 322.332383,190.285691 322.387126,189.237572 C322.407981,188.624437 322.466108,188.013028 322.561205,187.406528 L333.485931,186 C333.485931,186 334.113669,187.723636 333.981792,188.710763 Z" id="Path" fill="#FFD2C6" fill-rule="nonzero"></path>
            <path d="M333,240.316319 L330.458819,240.722233 L325.608911,240.977959 C325.608911,240.977959 319.892573,241.314867 321.192221,239.354301 C321.2822,239.223426 321.359883,239.087777 321.42468,238.948389 L321.42468,238.948389 C321.475031,238.852724 321.519112,238.755183 321.556758,238.65613 C322.547261,238.681219 323.52553,238.832093 324.451909,239.102635 C326.07911,239.585673 327.304794,238.327339 327.304794,238.327339 L328.097263,237.166424 L328.21349,237 C328.403683,237.211075 328.530479,237.332849 328.530479,237.332849 C328.722173,237.618084 328.999195,237.864314 329.338796,238.051317 L329.201435,238.266452 L328.435383,239.50855 C328.435383,239.50855 329.418042,239.585673 330.759955,239.752098 C331.29893,239.859157 331.853565,239.626556 332.027905,239.22035 L332.123001,239.22035 C332.503386,239.285297 332.756976,239.31371 332.756976,239.31371 L333,240.316319 Z" id="Path" fill="#000000" fill-rule="nonzero" opacity="0.1"></path>
            <path d="M335.962131,241.980241 C335.769423,242.820528 330.346869,243.076713 330.346869,243.076713 C330.346869,243.076713 327.327796,242.800033 326.482027,243.471239 C325.636258,244.142443 323.14713,243.983609 323.050777,243.983609 C322.954423,243.983609 321.642946,243.937496 321.129062,241.683066 C320.615178,239.428636 321.798182,239.121213 321.851711,239.085347 L321.851711,239.085347 C322.901208,239.099937 323.939692,239.292493 324.918962,239.654079 C326.567675,240.2638 327.809563,238.675451 327.809563,238.675451 L328.730273,237 C328.922979,237.266432 329.051452,237.420143 329.051452,237.420143 C329.24568,237.780184 329.526364,238.090991 329.870455,238.32704 L328.955098,240.166449 C328.955098,240.166449 329.950749,240.2638 331.310402,240.468747 C331.640387,240.54104 331.986849,240.467853 332.254394,240.269336 C332.521938,240.070819 332.682353,239.767909 332.691467,239.444007 C332.694169,239.397929 332.694169,239.351745 332.691467,239.305666 C332.691467,239.305666 333.537236,239.541356 334.586419,239.818037 C335.562408,240.086982 336.160376,241.026809 335.962131,241.980241 L335.962131,241.980241 Z" id="Path" fill="#626696" fill-rule="nonzero"></path>
            <path d="M345.795182,199.167089 C345.670374,199.915961 345.540369,201.857865 345.540369,201.857865 C345.982391,203.484726 344.84873,207.347874 344.84873,207.347874 L344.2819,209.553174 C344.531514,212.367903 342.721815,219.252366 342.721815,219.252366 C342.721815,219.252366 341.510149,225.635857 340.880916,228.388609 C340.504436,229.91892 340.618983,231.527828 341.208532,232.990302 L341.255336,233.103924 C341.255336,233.155571 341.281336,233.207216 341.291736,233.258863 C341.31051,233.334556 341.334844,233.408782 341.364542,233.480943 C341.505416,233.859969 341.715172,234.210083 341.983375,234.513869 C342.086652,234.637913 342.19968,234.753621 342.321392,234.859901 L342.321392,234.859901 C342.914153,235.381477 343.593261,235.797331 344.328701,236.089085 L344.328701,236.089085 L344.64592,236.213035 C344.974651,236.334079 345.309682,236.437521 345.649573,236.522914 L345.649573,236.522914 L345.763981,236.522914 L345.509165,238 L342.170586,237.147836 L337.698342,235.706901 L335.529824,234.498376 C335.529824,234.498376 335.529824,234.37959 335.597428,234.152345 C335.59997,234.138689 335.59997,234.124684 335.597428,234.111029 C335.597428,234.0129 335.63903,233.899278 335.665033,233.764997 C336.008251,231.828258 336.861096,226.410554 336.434674,222.402793 C335.914645,217.460236 337.994759,210.63775 338.478386,209.016053 C338.778995,208.086052 338.907609,207.109688 338.858005,206.134184 C338.036361,204.946319 337.84915,200.189686 337.84915,200.189686 C337.84915,200.189686 336.335868,197.121892 335.087802,193.86817 C334.67189,192.806138 334.370327,191.703371 334.188151,190.578296 C334.040357,189.78665 333.979331,188.981436 334.006141,188.176739 C334.006141,188.176739 344.151893,178.978519 345.264752,187.882354 C345.301155,188.187068 345.337556,188.471123 345.373959,188.755178 C346.362012,196.941129 345.914789,198.438875 345.795182,199.167089 Z" id="Path" fill="#FFD2C6" fill-rule="nonzero"></path>
            <path d="M345,236.805846 L344.751773,238 L341.499493,237.311065 L337.142856,236.146137 L335,235.135699 C335,235.135699 335,235.039666 335.065855,234.85595 C335.068332,234.844909 335.068332,234.833587 335.065855,234.822547 C335.065855,234.743215 335.106382,234.651357 335.131711,234.542797 L335.435663,234.542797 L335.435663,234.542797 C336.054595,234.49329 336.67901,234.56334 337.259372,234.74739 C337.96859,234.964509 338.900709,235.215031 339.088146,235.110647 C339.417177,234.994589 339.774426,234.943132 340.131712,234.960334 L340.582573,234.125261 L340.653495,234 C340.789561,234.306883 340.994017,234.590103 341.256333,234.835073 C341.365021,234.939961 341.481775,235.038981 341.605877,235.131525 L341.605877,235.419624 L341.580546,235.83716 C342.067185,236.092554 342.593826,236.292028 343.145897,236.430063 C343.288936,236.459413 343.438523,236.459413 343.581559,236.430063 L343.581559,236.430063 L343.890578,236.530272 C344.210811,236.62813 344.537184,236.711757 344.868287,236.780794 L344.868287,236.780794 L345,236.805846 Z" id="Path" fill="#000000" fill-rule="nonzero" opacity="0.1"></path>
            <path d="M343.632475,239.900015 C342.734899,239.650512 340.568684,239.244459 340.217677,239.55756 C339.866669,239.870662 336.863052,239.55756 336.863052,239.55756 C336.223175,239.547818 335.635266,239.211834 335.313607,238.672068 C334.68681,237.722978 335.193261,234.655558 335.193261,234.655558 L335.413894,234.655558 L335.78496,234.61642 L335.78496,234.61642 C336.397181,234.558638 337.014822,234.638984 337.590138,234.851245 C338.292153,235.110533 339.214799,235.404066 339.400332,235.281761 C339.725119,235.142521 340.079144,235.080483 340.433295,235.100748 L340.934734,234 C341.070574,234.359034 341.272832,234.69068 341.531447,234.978443 C341.63778,235.100927 341.753441,235.215404 341.877438,235.320899 L341.832309,236.137899 C342.314525,236.437425 342.835625,236.672706 343.381754,236.837487 C343.653847,236.938225 343.961217,236.842992 344.123884,236.607553 C344.147021,236.568984 344.165528,236.527946 344.179042,236.485246 L344.179042,236.485246 C344.584987,236.672006 345.012665,236.809997 345.452696,236.896192 L345.452696,236.896192 C346.618833,236.777484 347.693317,237.523879 347.959889,238.637824 C348.436255,240.002752 344.53005,240.149518 343.632475,239.900015 Z" id="Path" fill="#626696" fill-rule="nonzero"></path>
            <path d="M333.981037,188.390553 L333.375713,188.543909 C332.900284,188.663337 332.413048,188.74786 331.919665,188.796496 C328.789437,189.161844 323.63601,188.940831 322,188.855132 C322.02156,188.314424 322.081651,187.775238 322.179962,187.240381 L333.473875,186 C333.473875,186 334.117372,187.520031 333.981037,188.390553 Z" id="Path" fill="#000000" fill-rule="nonzero" opacity="0.1"></path>
            <path d="M343,185.488688 C343,185.488688 339.004914,186.08815 335.751022,186.773975 C334.668143,187.002583 333.648344,187.246432 332.917665,187.47504 C332.458942,187.609027 331.989475,187.705885 331.514128,187.764611 C327.892266,188.272629 321.458075,187.800172 321.458075,187.800172 C319.691826,182.26277 323.602806,175.287676 323.602806,175.287676 C323.513443,174.733936 324.417593,173.032074 324.417593,173.032074 L324.417593,172.976192 L324.974802,171 L339.824959,171 L340.008943,171.848391 L340.387424,173.575654 L342.721396,184.279604 L343,185.488688 Z" id="Path" fill="#626696" fill-rule="nonzero"></path>
            <path d="M346,189.054515 L345.906601,189.092985 L344.08807,189.900856 C342.121202,190.80765 336.237073,191 334.198782,191 C334.042637,190.157606 333.978163,189.300773 334.006488,188.444491 C334.006488,188.444491 344.725382,178.656614 345.901108,188.131234 C345.923083,188.449986 345.961541,188.774234 346,189.054515 Z" id="Path" fill="#000000" fill-rule="nonzero" opacity="0.1"></path>
            <path d="M345,188.070392 L344.655073,188.22864 L343.000429,188.979044 C341.180822,189.836647 335.65201,190 333.882389,190 L333.41749,190 C332.602665,189.974476 331.782842,189.193444 331.782842,188.979044 C331.782842,188.866738 331.697859,188.315422 331.627875,187.845782 C331.562889,187.468028 331.512899,187.141322 331.512899,187.141322 C329.615042,186.307035 327.777496,185.336395 326.014082,184.236701 C324.629379,183.271897 324.979304,176.416174 325.244246,172.970446 C325.339226,171.781032 325.424208,171 325.424208,171 L339.721134,171.852499 L341.720705,171.969909 L342.865459,172.230253 L343.170393,172.296615 C343.170393,172.296615 343.995217,178.422354 344.400128,178.932832 C344.805041,179.44331 344.540099,181.158517 344.49011,182.138635 C344.489438,182.559277 344.444183,182.97861 344.355139,183.389307 C344.355139,183.389307 344.945012,185.104514 344.810042,186.064213 C344.748193,186.73919 344.81266,187.42002 345,188.070392 L345,188.070392 Z" id="Path" fill="#626696" fill-rule="nonzero"></path>
            <circle id="Oval" fill="#FFD2C6" fill-rule="nonzero" cx="330" cy="131" r="6"></circle>
            <path d="M326.202158,133.01739 C326.202158,133.01739 326.639269,138.984661 325.414279,140.355521 C324.014405,141.751545 322.540892,143.072307 321,144.312198 L321.982149,148.365641 L327.524284,149 L334,142.113447 L332.526775,140.334017 C332.526775,140.334017 331.398921,136.52249 332.327107,134.619414 C333.255294,132.716339 326.202158,133.01739 326.202158,133.01739 Z" id="Path" fill="#FFD2C6" fill-rule="nonzero"></path>
            <path d="M338,145.512535 L338,145.512535 L337.722465,146 L336.123347,145.512535 L335,140.871866 L335.066078,139.526462 L335.396475,139 C335.396475,139 337.158589,139.043872 337.083699,140.818245 C337.008809,142.368384 337.810571,144.922702 338,145.512535 Z" id="Path" fill="#000000" fill-rule="nonzero" opacity="0.1"></path>
            <path d="M343,173.20769 C343,173.20769 341.499726,173.558291 339.781421,173.793851 C338.063115,174.029411 336.080054,174.155408 335.265026,173.651419 C333.899727,172.79683 326.502185,173.043346 324.363388,173.130996 L324,173.130996 L324.550273,171 L339.215574,171 L339.397267,171.914849 L341.473771,172.040846 L342.662569,172.320232 C342.880601,172.857089 343,173.20769 343,173.20769 Z" id="Path" fill="#000000" fill-rule="nonzero" opacity="0.1"></path>
            <path d="M335.565831,139 C335.565831,139 337.610995,139.04552 337.518963,140.88656 C337.42693,142.727599 338.633577,145.893782 338.633577,145.893782 L338.168301,146.950862 C338.168301,146.950862 337.518963,149.525282 338.030253,150.167623 C338.541544,150.809964 340.39753,150.809964 339.328932,156.095365 C339.328932,156.095365 339.098851,160.050565 339.656159,161.335246 C340.213465,162.619927 340.213465,165.700128 341.046869,166.989867 C341.807794,168.362801 342.460766,169.791634 343,171.263708 C343,171.263708 336.961656,172.593909 335.381766,171.678448 C333.801878,170.762986 324.092466,171.218188 324.092466,171.218188 C324.092466,171.218188 324.138483,169.609807 324.092466,169.422669 C324.001369,169.018516 324.084753,168.595091 324.322548,168.254317 C324.649773,167.814288 325.161065,167.080907 324.879854,166.438567 C324.598643,165.796226 325.575209,164.845359 325.063919,163.848973 C324.552627,162.852586 323.933966,162.655332 324.041337,162.109089 C324.096882,161.476305 323.890202,160.848344 323.468691,160.369206 C323.100563,159.908946 320.590123,155.053458 320.590123,155.053458 L320.170866,152.787564 C320.170866,152.787564 316.939508,150.445802 317.000863,149.343202 C317.062217,148.240601 318.222848,146.708088 318.222848,146.708088 L321.331496,143.673407 C321.331496,143.673407 323.054546,145.509389 324.726467,144.867048 C326.398388,144.224708 329.992761,141.144507 329.992761,141.144507 C329.992761,141.144507 331.276103,140.456647 331.368135,139.950867 C331.460168,139.445087 332.252668,139.905346 332.252668,139.905346 C332.252668,139.905346 333.413297,139.273121 333.643378,139.495664 C334.037359,139.698898 334.462185,139.837272 334.901154,139.905346 L335.565831,139 Z" id="Path" fill="#FFCDE5" fill-rule="nonzero"></path>
            <path d="M318.476718,149 L317.519954,149.78774 C316.792826,151.396012 316.383129,153.140963 316.315324,154.918419 C316.061757,157.591256 315.656192,160.24594 315.100778,162.868379 L313.207077,166.408029 C313.207077,166.408029 310.098833,173.233385 309.692331,175.047261 C309.28583,176.861138 307.441703,179.923997 307.441703,179.923997 C307.441703,179.923997 301.180598,185.806138 305.548004,186.868551 C309.91541,187.930965 310.054217,182.204299 310.054217,182.204299 C310.054217,182.204299 311.045683,181.02787 311.239017,180.224582 C311.432353,179.421294 316.944905,169.180668 316.944905,169.180668 C316.944905,169.180668 318.88322,166.423576 318.476718,164.96211 C318.476718,164.96211 321,158.743106 321,157.188355 C320.953012,155.88771 320.817165,154.592239 320.593499,153.311843 L321,150.062413 L318.476718,149 Z" id="Path" fill="#FFD2C6" fill-rule="nonzero"></path>
            <path d="M331,162 C331,162 326.076153,164.828209 325.119044,164.979937 C324.161938,165.131665 329.290485,164.373025 329.290485,164.373025 L331,162 Z" id="Path" fill="#000000" fill-rule="nonzero" opacity="0.1"></path>
            <path d="M335,164.26893 C335,164.26893 328.747647,165.811047 326,165.533466 C326,165.525755 332.839999,166.478013 335,164.26893 Z" id="Path" fill="#000000" fill-rule="nonzero" opacity="0.1"></path>
            <path d="M334.973335,164 C334.973335,164 329.32385,167.609049 326,167.021027 C326,167.021027 333.76804,168.590882 334.973335,167.754705 L331.500813,166.778266 C331.500813,166.778266 335.35563,164.70131 334.973335,164 Z" id="Path" fill="#000000" fill-rule="nonzero" opacity="0.1"></path>
            <path d="M329.110411,120.165602 C327.501027,119.770851 325.799063,120.08951 324.442927,121.039494 C323.499058,121.778942 322.8871,122.911383 321.808393,123.464676 C321.248162,123.703186 320.673033,123.905277 320.086609,124.069678 C317.960864,124.936652 316.706962,127.142213 317.052744,129.406111 C317.2187,130.336885 317.654332,131.195264 317.872148,132.115696 C318.255918,133.754891 317.913637,135.47165 317.498749,137.105675 C316.337943,141.636368 314.576436,145.992506 312.260796,150.058935 C312.078406,150.310982 311.987007,150.617189 312.001491,150.927657 C312.059882,151.136289 312.170529,151.326688 312.323027,151.48095 C314.501188,153.988867 318.02773,154.852417 321.372761,154.966179 C322.60069,155.087225 323.838875,154.882058 324.961537,154.371518 C325.654951,153.973655 326.251722,153.428064 326.709251,152.773691 C327.866547,151.194811 328.441753,149.266005 328.337683,147.313154 C328.24952,145.736011 327.720538,144.143354 328.119867,142.61792 C328.159521,142.404889 328.256296,142.206543 328.399916,142.043944 C328.757756,141.676805 329.354157,141.775054 329.862395,141.713002 C331.247081,141.552702 332.139089,140.099662 332.305044,138.719015 C332.470999,137.338368 332.123532,135.95255 332.113159,134.582245 C332.107813,132.747537 332.683112,130.95791 333.757151,129.468163 C334.218713,128.837306 334.794369,128.21679 334.960325,127.425633 C335.157396,126.432808 334.58174,125.703702 334.083874,124.922887 C333.311146,123.70254 332.932562,122.280525 331.755319,121.349752 C330.978377,120.754752 330.072608,120.34923 329.110411,120.165602 Z" id="Path" fill="#000000" fill-rule="nonzero" opacity="0.1"></path>
            <path d="M329.088607,119.16261 C327.488301,118.772683 325.797175,119.091638 324.449961,120.037483 C323.505626,120.782937 322.893367,121.916649 321.80894,122.470562 C321.247435,122.705316 320.672168,122.905852 320.08631,123.071067 C317.963764,123.938075 316.710149,126.140243 317.050953,128.403134 C317.216991,129.334952 317.652836,130.194295 317.870758,131.115759 C318.254719,132.756794 317.917458,134.475479 317.497176,136.111337 C316.336376,140.638297 314.575748,144.990619 312.261834,149.053248 C312.075478,149.303657 311.983613,149.61162 312.002403,149.922945 C312.055715,150.132759 312.165106,150.324202 312.31891,150.476858 C314.49814,152.992766 318.026418,153.852109 321.373095,153.965998 C322.601111,154.08707 323.839438,153.883536 324.963636,153.375847 C325.65652,152.974136 326.253248,152.426475 326.712208,151.77105 C327.867845,150.189531 328.441443,148.25876 328.336254,146.304386 C328.242859,144.751357 327.713617,143.13103 328.113142,141.603884 C328.15714,141.39206 328.253447,141.194547 328.393329,141.029263 C328.756535,140.661713 329.34804,140.760071 329.861717,140.703127 C331.241894,140.542647 332.134343,139.0828 332.300378,137.70578 C332.466416,136.328761 332.118775,134.936211 332.113588,133.564369 C332.105778,131.728821 332.681651,129.938093 333.758388,128.449725 C334.214989,127.812983 334.796116,127.191772 334.962154,126.379019 C335.154133,125.385081 334.578193,124.660334 334.080084,123.873465 C333.306976,122.656926 332.928205,121.228139 331.750382,120.296321 C330.963632,119.716919 330.052198,119.328719 329.088607,119.16261 Z" id="Path" fill="#985C7E" fill-rule="nonzero"></path>
            <path d="M327,179 C327,179 328.125603,184.506128 330,186 L327,179 Z" id="Path" fill="#000000" fill-rule="nonzero" opacity="0.1"></path>
            <g id="Group" opacity="0.1" transform="translate(312.000000, 125.000000)" fill="#000000" fill-rule="nonzero">
                <path d="M5.69090702,5.3416044 C5.62987854,5.11925812 5.55867862,4.8916179 5.482393,4.66927164 C5.56376434,4.89691186 5.6146214,5.0980823 5.69090702,5.3416044 Z" id="Path"></path>
                <path d="M22.5500284,0.333519402 C22.5713022,0.509289938 22.5713022,0.687144742 22.5500284,0.862915278 C22.3974572,1.67289097 21.8227722,2.30816602 21.3701442,2.954029 C20.3178338,4.4797024 19.7537693,6.31157344 19.7579748,8.1897542 C19.7579748,9.61382912 20.103803,11.0326101 19.9410603,12.4249212 C19.7783176,13.8172324 18.9239187,15.3260106 17.5507776,15.4848294 C17.0422068,15.5483569 16.4675219,15.4477717 16.116608,15.8236427 C15.9780308,15.9923644 15.8819116,16.1942938 15.8368941,16.4112722 C15.4452946,17.97299 15.9691225,19.5876474 16.0555795,21.2181868 C16.1501683,23.2181758 15.5789407,25.1908876 14.4383244,26.8033132 C13.9910628,27.4745336 13.405538,28.0333934 12.7244409,28.4391464 C11.6253975,28.9621188 10.4127371,29.1722004 9.21021682,29.0479518 C6.0011352,28.9367786 2.59879668,28.0738634 0.442456578,25.6015846 C0.385286286,25.749214 0.367708258,25.9102348 0.3915995,26.067453 C0.443854368,26.2820172 0.551075236,26.4777946 0.701827676,26.6339066 C2.83782496,29.2067706 6.29610626,30.0855676 9.57638778,30.2020348 C10.7800428,30.3258482 11.9938027,30.1177058 13.0956976,29.5985234 C13.7748366,29.1877186 14.3597245,28.6276598 14.8095811,27.9573962 C15.9422916,26.340074 16.5045087,24.3655936 16.4014077,22.3669758 C16.3098649,20.7787882 15.7911227,19.1217791 16.1827222,17.5600612 C16.2258464,17.3434419 16.3202436,17.1414576 16.4573504,16.9724318 C16.81335,16.5965607 17.3931207,16.6971459 17.8966057,16.6389124 C19.249404,16.4747997 20.1241458,14.9819033 20.2868884,13.5737103 C20.449631,12.1655172 20.1088886,10.7414423 20.103803,9.33854326 C20.096148,7.46144108 20.660597,5.63017436 21.7159724,4.108112 C22.1635146,3.45695508 22.7331138,2.82168002 22.8958566,1.9905285 C22.9801956,1.41271853 22.8570794,0.822817066 22.5500284,0.333519402 L22.5500284,0.333519402 Z" id="Path"></path>
            </g>
            <ellipse id="Oval" fill="#232323" fill-rule="nonzero" opacity="0.9" cx="66" cy="257" rx="11" ry="2"></ellipse>
            <path d="M69.6698156,240 C69.6698156,240 55.9420056,247.047685 63.0347073,255.321056 C63.4442383,256.378853 64.4919639,257.054953 65.631054,256.996487 C65.631054,256.996487 65.2430941,256.299626 66.7203259,255.741149 C67.2468651,255.540027 67.747706,255.277924 68.2124793,254.960269 C68.8368328,254.531663 69.303163,253.912101 69.5404956,253.195877 L69.5404956,253.195877 C69.5404956,253.195877 72.3507177,249.464458 70.1721738,242.560098 C70.1721738,242.560098 70.4556829,240.583188 70.2069907,240.291594 L68.5407529,242.560098 C68.5407529,242.560098 70.2666769,243.71165 70.4656306,245.401908 C70.4656306,245.401908 68.6700728,242.565041 68.2771392,242.891231 C68.1975577,242.955481 67.4514811,244.131743 67.4514811,244.131743 C67.4514811,244.131743 70.4357876,246.148192 70.6596105,248.762655 C70.6596105,248.762655 68.9784511,245.100429 67.1779197,244.576547 L66.1533077,246.420017 C66.1533077,246.420017 69.4161496,248.396927 69.784214,251.362292 C69.784214,251.362292 67.8891794,247.596277 65.9543539,246.84011 L65.1933557,248.787366 C65.1933557,248.787366 68.3368253,250.764278 68.6253083,253.235416 C68.6253083,253.235416 65.9941446,249.103673 65.0491142,249.237113 C65.0491142,249.237113 64.4572268,251.065757 64.5517299,251.629175 C64.5517299,251.629175 66.780012,253.111858 66.8198027,254.559945 C66.8198027,254.559945 64.7656051,251.980078 64.4472791,252.153057 C64.4472791,252.153057 64.3179592,254.742809 64.9446635,256.106877 C64.2982953,254.890787 63.9844362,253.527434 64.0344501,252.153057 C63.3981654,252.711495 62.9414709,253.443756 62.7213551,254.258466 C62.7213551,254.258466 62.1294677,252.830149 64.0742409,251.525387 C64.0742409,251.525387 64.2582729,249.50894 64.482096,249.261826 C64.482096,249.261826 62.3781599,250.279933 61.4977895,251.535272 C61.4977895,251.535272 61.8260633,249.667091 64.6810498,248.737944 L65.4072311,246.761034 C65.4072311,246.761034 62.5522444,247.962008 61.6669002,249.019654 C61.6669002,249.019654 62.3035523,247.166299 65.6459755,246.276691 L66.6407444,244.457933 C66.6407444,244.457933 64.1040838,245.308004 62.8655966,246.276691 C62.8655966,246.276691 63.8255486,244.680336 66.944149,243.948879 L67.7499116,242.807212 C67.7499116,242.807212 65.9046154,243.464536 65.3923096,243.696822 C64.8800035,243.92911 64.7755527,243.815436 64.7755527,243.815436 C65.7157826,243.024918 66.8597213,242.511357 68.0781854,242.332754 C68.0781854,242.332754 69.7941616,240.123556 69.6698156,240 Z" id="Path" fill="#5F5F5F" fill-rule="nonzero"></path>
            <path d="M84.8308162,252.874263 C86.2856562,253.751633 88.5610459,254.321152 91.4254194,252.438144 L91.3952152,256.599233 C91.6016111,259.457096 95.0600023,269.852124 95.0600023,269.852124 L97.5015158,278.410321 C99.2527165,284.453547 100.157715,290.718571 100.189698,297.01978 C100.127144,299.003606 100.390882,300.984109 100.969975,302.879169 C102.26876,306.470739 100.46657,311.088472 99.6711905,312.797032 C98.2213847,313.310114 96.7262723,313.694924 95.6439519,313.951466 C95.5207388,313.980578 95.3996358,314.018292 95.2815005,314.064343 L95.2815005,314.038689 C95.2815005,314.038689 91.6167133,315.521494 89.9856815,315.316262 C88.772476,315.162337 88.0123347,316.706712 88.9788719,317.840622 C88.188803,318.088587 87.3634925,318.199588 86.5373585,318.168994 C84.9063269,317.96376 84.095845,320.821623 87.1464784,321.637423 C90.1971117,322.453222 107.514238,321.637423 107.514238,321.637423 C108.517006,321.126746 109.053417,319.988973 108.818056,318.871914 C110.147045,318.820606 110.977663,318.77956 110.977663,318.77956 C110.977663,318.77956 114.03333,317.353195 110.977663,313.47943 L110.816574,313.6077 L110.162147,311.647729 L110.162147,308.9951 C110.162147,308.9951 114.03333,290.011091 112.810057,287.794578 C111.586783,285.578067 110.977663,274.136353 110.977663,274.136353 L111.385421,261.699262 C112.487878,259.375004 113.056725,255.737257 113.343666,252.889656 C113.758497,251.530453 114.020273,250.127561 114.123943,248.708043 C114.16925,248.041038 114.209522,247.338115 114.234692,246.60954 C114.250858,245.013206 114.000625,243.425689 113.494687,241.914847 C114.871869,239.821975 116.414031,237.84692 118.105876,236.009281 C119.5336,234.656482 120.218525,232.67536 119.938269,230.709149 L118.931459,223.777421 L116.484912,211.976551 C116.791989,208.69283 116.12246,206.80469 115.377421,205.737481 C115.553613,204.680533 115.719736,203.618456 115.845588,202.556377 C116.386622,197.930968 116.144834,193.24523 115.130753,188.703181 C114.778369,187.11776 114.295101,185.491292 113.207746,184.290682 C111.969371,182.931016 109.965819,182.099824 109.507721,180.319432 C109.437021,179.86829 109.342921,179.421283 109.225814,178.98029 C108.777784,177.810464 107.363216,177.389738 106.12484,177.235813 C103.919927,176.96388 100.733375,176.753517 98.6140404,177.636017 C97.1390643,178.256845 95.0902065,179.950014 94.2897928,181.771452 C93.8072477,182.529908 93.6271739,183.447584 93.786388,184.336859 C93.8635404,184.64125 93.9821544,184.933123 94.1387715,185.203966 C93.8117006,186.077476 93.6411929,187.003751 93.6353667,187.93869 C93.6519025,191.207973 95.6285692,194.134321 98.6190744,195.3168 C98.6643809,195.470724 98.7096873,195.624648 98.7499597,195.778573 C98.8418685,196.142609 98.9074868,196.513019 98.9462876,196.886828 C98.9110492,197.610273 98.8657429,198.333718 98.8305045,199.052031 C98.8113112,199.151018 98.7860921,199.248693 98.7549937,199.344489 C97.0018052,200.135704 95.2926774,201.024678 93.6353667,202.00738 C94.8586404,203.839081 93.4340048,211.586608 93.4340048,211.586608 C90.3783374,213.42344 87.32267,218.113004 90.5796993,223.002668 C93.8367286,227.892333 92.0043349,233.136025 92.0043349,233.136025 L91.5009301,241.109308 L91.5009301,241.109308 L91.5009301,241.109308 L91.4002492,242.69986 L91.4405216,242.69986 L91.4002492,243.305297 L91.4858279,243.305297 L91.4858279,243.956911 C90.0511243,244.469991 87.9619941,245.567985 86.7185842,247.548478 C86.1275602,248.531241 85.4096589,249.428612 84.5841479,250.216502 C84.1741158,250.553826 83.95737,251.078239 84.0069938,251.612918 C84.0566178,252.147597 84.3659979,252.621285 84.8308162,252.874263 L84.8308162,252.874263 Z M109.422142,231.694267 C109.299792,230.316116 109.550514,228.930155 110.147045,227.687101 C110.62528,227.687101 111.108548,227.687101 111.586783,227.687101 C111.637123,228.030865 111.692498,228.359237 111.762975,228.656824 C112.175766,230.473132 110.524599,231.329979 109.422142,231.694267 Z" id="Shape" fill="url(#linearGradient-1)" fill-rule="nonzero"></path>
            <path d="M109.216544,310.677419 L110,313.188171 L107.468833,315.9086 L99.0617431,318 L93,317.370968 L93.3917283,315.069892 L93.3917283,315.069892 C93.6266586,314.061306 94.3694817,313.278554 95.3152143,313.043011 C97.8262925,312.413979 102.557164,310.989247 103.556573,309 L109.216544,310.677419 Z" id="Path" fill="#DB8B8B" fill-rule="nonzero"></path>
            <path d="M109.216544,310.677419 L110,313.188171 L107.468833,315.9086 L99.0617431,318 L93,317.370968 L93.3917283,315.069892 L93.3917283,315.069892 C93.6266586,314.061306 94.3694817,313.278554 95.3152143,313.043011 C97.8262925,312.413979 102.557164,310.989247 103.556573,309 L109.216544,310.677419 Z" id="Path" fill="#000000" fill-rule="nonzero" opacity="0.1"></path>
            <path d="M95.5231177,316.324219 L96.7067016,314.59231 L95.5231177,312.593955 C95.5231177,312.593955 91.9824819,314.159334 90.40437,313.942844 C88.8262579,313.726356 88.0422601,316.757195 90.996162,317.617599 C93.9500637,318.478001 110.687155,317.617599 110.687155,317.617599 C110.687155,317.617599 113.641057,316.107731 110.687155,312 L108.137897,314.159334 C108.137897,314.159334 103.803147,316.757195 101.638301,316.324219 L95.5231177,316.324219 Z" id="Path" fill="#2E3037" fill-rule="nonzero"></path>
            <path d="M90,320.376343 L96.0581635,321 L104.460289,318.9086 L107,316.188171 L106.794213,315.521504 L106.5031,314.586021 L106.222025,313.677419 L100.555359,312 C100.26796,312.50295 99.8742459,312.926521 99.4059639,313.236558 C97.5639208,314.580644 94.2562739,315.553763 92.3188661,316.043011 L92.0729259,316.118279 C91.6963356,316.25019 91.3529467,316.472725 91.0690876,316.768816 C90.7285439,317.124942 90.4870149,317.575367 90.37142,318.069892 L90,320.376343 Z" id="Path" fill="#DB8B8B" fill-rule="nonzero"></path>
            <path d="M90,320.316977 L96.0581635,321 L104.460289,318.709518 L107,315.730126 L106.794213,315 L104.460289,317.102061 C104.460289,317.102061 100.163862,319.857703 98.0106289,319.398429 L91.9574845,319.398429 L93.126956,317.561334 L92.0729259,315.653582 C91.6963356,315.79805 91.3529467,316.041765 91.0690876,316.366044 C90.7285439,316.75607 90.4870149,317.249371 90.37142,317.79097 L90,320.316977 Z" id="Path" fill="#000000" fill-rule="nonzero" opacity="0.1"></path>
            <path d="M92.5295051,319.324219 L93.707936,317.59231 L92.5295051,315.593955 C92.5295051,315.593955 88.9891551,317.159334 87.4061129,316.942844 C85.8230707,316.726356 85.0441939,319.757195 87.9978573,320.617599 C90.9515206,321.478001 107.687261,320.617599 107.687261,320.617599 C107.687261,320.617599 110.640924,319.107731 107.687261,315 L105.128093,317.13713 C105.128093,317.13713 100.798751,319.734993 98.6290223,319.302014 L92.5295051,319.324219 Z" id="Path" fill="#2E3037" fill-rule="nonzero"></path>
            <path d="M97,202.896994 C97,202.896994 106.978644,203.827235 105.542445,200.096682 C105.137502,199.03685 105.031113,197.903445 105.232782,196.797684 C105.493576,195.42781 106.097892,194.129158 107,193 L97.6460225,194.30905 C98.2044594,195.150482 98.6302971,196.057391 98.9113722,197.003872 C100.005873,200.964587 97,202.896994 97,202.896994 Z" id="Path" fill="#DB8B8B" fill-rule="nonzero"></path>
            <path d="M113,248 C113,248 112.793469,256.686983 110.733451,260.931879 L110.299206,273.251413 C110.299206,273.251413 110.9188,284.564212 112.152692,286.790447 C113.386584,289.01668 109.47308,307.802153 109.47308,307.802153 L109.47308,311.029934 C109.47308,311.029934 102.879965,313.458554 101,310.630355 L102.88526,286.588062 L102.075022,253.241251 L113,248 Z" id="Path" fill="#474463" fill-rule="nonzero"></path>
            <path d="M113,248 C113,248 112.793469,256.686983 110.733451,260.931879 L110.299206,273.251413 C110.299206,273.251413 110.9188,284.564212 112.152692,286.790447 C113.386584,289.01668 109.47308,307.802153 109.47308,307.802153 L109.47308,311.029934 C109.47308,311.029934 102.879965,313.458554 101,310.630355 L102.88526,286.588062 L102.075022,253.241251 L113,248 Z" id="Path" fill="#000000" fill-rule="nonzero" opacity="0.1"></path>
            <path d="M118.591918,221 L119.867556,224.256591 L120.93515,231.177502 C121.228627,233.132819 120.514939,235.103083 119.018956,236.467501 C116.462206,238.908638 113.051381,244 113.051381,244 L109,232.411137 C109,232.411137 113.051381,231.799547 112.410825,229.154546 C111.770269,226.509546 111.983787,221.622047 111.983787,221.622047 L118.591918,221 Z" id="Path" fill="#FC6681" fill-rule="nonzero"></path>
            <path d="M118.591918,221 L119.867556,224.256591 L120.93515,231.177502 C121.228627,233.132819 120.514939,235.103083 119.018956,236.467501 C116.462206,238.908638 113.051381,244 113.051381,244 L109,232.411137 C109,232.411137 113.051381,231.799547 112.410825,229.154546 C111.770269,226.509546 111.983787,221.622047 111.983787,221.622047 L118.591918,221 Z" id="Path" fill="#000000" fill-rule="nonzero" opacity="0.05"></path>
            <path d="M100,313.003695 C102.475248,316.433719 106.316832,314.48742 107,314.099033 L106.722772,313.361535 L101.133663,312 C100.850198,312.408236 100.461873,312.752041 100,313.003695 L100,313.003695 Z" id="Path" fill="#000000" fill-rule="nonzero" opacity="0.1"></path>
            <path d="M91,256.276465 C91.1967335,259.085504 94.5311139,269.321751 94.5311139,269.321751 L96.8868713,277.743718 C98.5773817,283.697416 99.4483442,289.862618 99.4746734,296.061755 C99.4246595,298.014287 99.6853194,299.962159 100.246474,301.829308 C101.820342,306.241305 98.6776505,312.261415 98.6776505,312.261415 C101.426875,317.276454 106.13839,313.869527 106.13839,313.869527 L106.13839,310.658458 C106.13839,310.658458 109.871282,293.201173 108.887614,289.78909 C107.903947,286.377007 107.515524,277.145831 107.515524,277.145831 L107.515524,260.492601 C110.653014,257.282773 112.557749,253.028254 112.882818,248.503927 C112.933262,247.849342 112.968573,247.158678 112.993795,246.442245 C113.155218,241.911702 110.123504,236.608027 108.958237,234.711279 C108.675747,234.257711 108.499192,234 108.499192,234 L91.1362001,241.030332 L91.0958443,241.030332 L91.0958443,241.715842 L91.0958443,243.236331 L91,256.276465 Z" id="Path" fill="#474463" fill-rule="nonzero"></path>
            <path d="M97,194.167867 C97.5373042,194.918549 97.9470273,195.727647 98.2174658,196.572048 C100.190794,197.200814 102.386298,197.134413 104.299657,196.388098 C104.550582,195.165967 105.13203,194.007376 106,193 L97,194.167867 Z" id="Path" fill="#000000" fill-rule="nonzero" opacity="0.1"></path>
            <circle id="Oval" fill="#DB8B8B" fill-rule="nonzero" cx="102" cy="189" r="8"></circle>
            <path d="M91,243.762202 L91.0822065,243.762202 C99.4724174,245.585134 110,236.328998 110,236.328998 C109.718691,235.823723 109.474767,235.296125 109.270416,234.750938 C108.982693,234.272079 108.802866,234 108.802866,234 L91.1387236,241.433204 L91.0924823,242.17326 L91,243.762202 Z" id="Path" fill="#000000" fill-rule="nonzero" opacity="0.1"></path>
            <path d="M94.3787218,201.685342 C94.3787218,201.685342 105.498338,194.872895 109.073957,197.677112 L114.036979,204.088222 C114.036979,204.088222 117.214741,205.086421 116.617954,211.497529 L119,223.115736 L111.858962,224.921755 C111.858962,224.921755 107.640649,228.92484 111.032642,234.744234 C111.032642,234.744234 100.509813,243.558223 92.1598992,241.75735 L92.7515852,232.341353 C92.7515852,232.341353 94.5419455,227.134257 91.3641836,222.328497 C88.1864218,217.522738 91.1652547,212.912501 94.1440876,211.106483 C94.154289,211.075611 95.5467914,203.486215 94.3787218,201.685342 Z" id="Path" fill="#FC6681" fill-rule="nonzero"></path>
            <path d="M93.7317202,244 C93.7317202,244 89.0959308,244.800794 86.8830081,248.019473 C86.247823,248.987389 85.4708971,249.872077 84.5736246,250.649178 C84.1642106,250.988223 83.9546345,251.483364 84.0082636,251.984893 C84.0618928,252.48642 84.3724314,252.935454 84.8459844,253.196222 C86.5993001,254.152008 89.4590771,254.746147 93.0678434,252.044111 C99.2526787,247.415002 93.7317202,244 93.7317202,244 Z" id="Path" fill="#DB8B8B" fill-rule="nonzero"></path>
            <path d="M99.9846369,206.150764 C99.9846369,206.150764 104.094178,205.747487 105.117606,216.217198 C106.141035,226.686912 107.786962,229.101407 107.786962,229.101407 C107.786962,229.101407 108.815666,234.535317 106.352051,237.75637 C103.888437,240.977424 99.1616737,247.817635 99.1616737,247.817635 C99.1616737,247.817635 94.0287042,249.229108 93,244.198475 L99.3674145,232.5241 C99.3674145,232.5241 100.396118,228.501661 97.9325041,225.683887 C95.4688899,222.866113 93.6172225,204.139544 99.9846369,206.150764 Z" id="Path" fill="#000000" fill-rule="nonzero" opacity="0.1"></path>
            <path d="M99.9832415,206.152988 C99.9832415,206.152988 104.091961,205.749681 105.115186,216.214959 C106.13841,226.680239 107.789282,229.100077 107.789282,229.100077 C107.789282,229.100077 108.812506,234.53437 106.349384,237.755648 C103.886262,240.976927 99.1604426,247.817622 99.1604426,247.817622 C99.1604426,247.817622 94.0284986,249.229194 93,244.198206 L99.3661424,232.523009 C99.3661424,232.523009 100.394641,228.495117 97.9315188,225.677145 C95.4683967,222.859171 93.6170992,204.126114 99.9832415,206.152988 Z" id="Path" fill="#FC6681" fill-rule="nonzero"></path>
            <path d="M96.0410141,213 C96.0410141,213 95.6095098,219.261997 97.545747,222.696497 C99.4819839,226.130999 99.4875161,230.571983 97.545747,233" id="Path" fill="#000000" fill-rule="nonzero" opacity="0.1"></path>
            <path d="M94,206 C94,206 95.6276084,204.590635 100.296549,204.413898 C104.96549,204.237161 107,203 107,203" id="Path" fill="#000000" fill-rule="nonzero" opacity="0.1"></path>
            <path d="M106.19154,179.221508 C107.432935,179.369383 108.858435,179.782415 109.305548,180.919526 C109.423886,181.349499 109.518701,181.785234 109.589596,182.224909 C110.052489,183.958621 112.067125,184.774485 113.30852,186.095165 C114.407891,187.262871 114.886564,188.848708 115.244255,190.388652 C116.263813,194.813309 116.507433,199.372818 115.964895,203.87591 C115.565123,207.169962 114.749801,210.413022 114.518354,213.717274 C114.286908,217.021523 114.707719,220.504245 116.575072,223.283283 C117.374614,224.476485 118.431904,225.526911 119,226.852689 C117.826987,227.775637 116.206861,227.908215 114.697199,227.959207 C112.943817,228.013598 111.190434,228.013598 109.437051,227.959207 C108.508786,227.996857 107.585342,227.811164 106.749116,227.418696 C106.157641,227.053806 105.672338,226.548248 105.339396,225.95014 C104.334708,224.292916 104.076961,222.304247 104.119042,220.376767 C104.161123,218.449286 104.476732,216.542204 104.513553,214.619823 C104.513553,213.569399 104.450431,212.457783 103.829734,211.601125 C103.319332,211.028444 102.742117,210.515097 102.109665,210.07138 C99.921444,208.189793 99.1692428,205.165996 99.0956008,202.330866 C99.0219586,199.495738 99.5006322,196.650411 99.2534053,193.820381 C99.1587226,192.713865 98.7273904,191.382986 97.606979,191.168822 C97.2533956,191.149987 96.9017481,191.105672 96.5549494,191.036244 C95.650204,190.6997 95.7396265,189.465705 95.5029198,188.563155 C95.2136118,187.543325 94.3246467,186.768254 94.0721597,185.743324 C93.4830231,183.341623 96.6338516,180.475899 98.7010897,179.624341 C100.768328,178.772783 103.971758,178.956352 106.19154,179.221508 Z" id="Path" fill="#000000" fill-rule="nonzero" opacity="0.1"></path>
            <path d="M106.205001,179.213222 C107.445091,179.366222 108.863838,179.779324 109.315736,180.911528 C109.434482,181.343172 109.529202,181.780706 109.599485,182.222233 C110.061892,183.956239 112.074411,184.772242 113.314501,186.088047 C114.412717,187.255951 114.890887,188.842057 115.248201,190.382263 C116.266689,194.807672 116.510053,199.367955 115.968084,203.871812 C115.568733,207.166424 114.754267,210.410036 114.523064,213.714847 C114.291861,217.019659 114.71223,220.502972 116.57762,223.282483 C117.376322,224.475887 118.432501,225.526492 119,226.852497 C117.82822,227.775598 116.209797,227.908199 114.701721,227.9592 C112.950181,228.0136 111.189884,228.0136 109.420828,227.9592 C108.493538,227.996858 107.571065,227.811133 106.735717,227.418598 C106.146274,227.054192 105.661741,226.550575 105.327479,225.954892 C104.318592,224.292285 104.066371,222.303279 104.108408,220.375473 C104.150444,218.447664 104.465722,216.540259 104.502504,214.61755 C104.502504,213.572047 104.439449,212.455142 103.819404,211.59834 C103.308174,211.026849 102.731727,210.513558 102.101143,210.068335 C99.915221,208.186428 99.1585558,205.167216 99.0849911,202.326506 C99.0114263,199.485795 99.4948514,196.645085 99.2478844,193.814575 C99.1533011,192.707871 98.7224222,191.376766 97.6031882,191.162565 C97.2499763,191.143728 96.8986985,191.099405 96.5522644,191.029965 C95.6484697,190.693364 95.7377984,189.459159 95.5013403,188.556456 C95.2123363,187.536452 94.3243055,186.76125 94.0720839,185.736146 C93.4835664,183.339137 96.6310837,180.467827 98.6961491,179.616123 C100.761215,178.76442 103.987551,178.968421 106.205001,179.213222 Z" id="Path" fill="#472727" fill-rule="nonzero"></path>
            <ellipse id="Oval" fill="#232323" fill-rule="nonzero" opacity="0.9" cx="495.5" cy="357" rx="12.5" ry="2"></ellipse>
            <ellipse id="Oval" fill="#232323" fill-rule="nonzero" opacity="0.9" cx="447.5" cy="361" rx="12.5" ry="2"></ellipse>
            <ellipse id="Oval" fill="#232323" fill-rule="nonzero" opacity="0.9" cx="392.5" cy="355" rx="12.5" ry="2"></ellipse>
            <ellipse id="Oval" fill="#232323" fill-rule="nonzero" opacity="0.901897321" cx="467.5" cy="376" rx="8.5" ry="2"></ellipse>
            <ellipse id="Oval" fill="#232323" fill-rule="nonzero" opacity="0.9" cx="418.5" cy="374" rx="8.5" ry="2"></ellipse>
            <path d="M447.993702,361 C447.993702,361 465.446229,304.083871 445.261233,281.284408 C430.162671,264.231234 413.026425,266.268743 405.337151,268.388783 C401.316672,269.455344 397.969267,272.223571 396.180536,275.961095 C393.499919,281.7177 393.982119,291.069607 412.927911,301.979305 C444.644226,320.244668 446.630061,345.308604 446.630061,345.308604 L447.993702,361 Z" id="Path" fill="#191919" fill-rule="nonzero"></path>
            <path d="M408,277 C408,277 459.936016,292.886767 448.30105,361" id="Path" stroke="#565987"></path>
            <path d="M439,283 C439,283 430.938819,287.799999 433.504008,295" id="Path" stroke="#565987"></path>
            <path d="M414,287 C414,287 418.514039,282.116372 424,284.810986" id="Path" stroke="#565987"></path>
            <path d="M434,309.798175 C434,309.798175 441.945799,305.042012 444,311" id="Path" stroke="#565987"></path>
            <path d="M453,316.037225 C453,316.037225 447.112399,315.443319 447,319" id="Path" stroke="#565987"></path>
            <path d="M448,361 C448,361 428.117665,319.095314 422.655318,320.014917 C420.062846,320.448594 418.867485,323.092457 418.322764,325.762443 C417.652633,329.196339 418.031654,332.761206 419.407164,335.961688 C422.221557,342.654943 429.787134,355.388325 448,361 Z" id="Path" fill="#191919" fill-rule="nonzero"></path>
            <path d="M423,329 C423,329 444.787768,359.651341 449,361" id="Path" stroke="#565987"></path>
            <path d="M421,334 L425,334" id="Path" stroke="#565987"></path>
            <path d="M427,344.831362 L434,345.168638" id="Path" stroke="#565987"></path>
            <path d="M432.731071,337 L431.268929,341" id="Path" stroke="#565987"></path>
            <path d="M440.075325,348 L439.924675,352" id="Path" stroke="#565987"></path>
            <path d="M449,361 C449,361 468.882336,319.095314 474.344682,320.014917 C476.942198,320.448594 478.137558,323.092457 478.677237,325.762443 C479.347367,329.196339 478.968344,332.761206 477.592837,335.961688 C474.753224,342.654943 467.187647,355.388325 449,361 Z" id="Path" fill="#191919" fill-rule="nonzero"></path>
            <path d="M475,329 C475,329 453.207818,359.651341 449,361" id="Path" stroke="#565987"></path>
            <path d="M476,334 L472,334" id="Path" stroke="#565987"></path>
            <path d="M470,344.831362 L463,345.168638" id="Path" stroke="#565987"></path>
            <path d="M464.26893,337 L465.73107,341" id="Path" stroke="#565987"></path>
            <path d="M456.924675,348 L457.075325,352" id="Path" stroke="#565987"></path>
            <path d="M413.264351,371.233307 C412.683591,370.810588 412.261111,370.239717 412.053344,369.596941 C411.857932,368.932339 412.212524,368.236625 412.902131,367.931615 C413.680637,367.666129 414.524017,368.148832 415.140334,368.636362 C415.756651,369.123892 416.491907,369.679001 417.30285,369.577634 C416.440517,368.876424 416.051023,367.823986 416.275655,366.802089 C416.313375,366.595927 416.412322,366.402566 416.562188,366.242154 C416.994692,365.827028 417.778604,366.005629 418.297607,366.32904 C419.919495,367.362025 420.400654,369.360418 420.411467,371.156073 C420.492676,370.495143 420.492676,369.828266 420.411467,369.167336 C420.347922,368.493928 420.66167,367.836072 421.249443,367.410296 C421.640464,367.220997 422.080738,367.127719 422.525328,367.139983 C423.267827,367.045765 424.020263,367.23696 424.595936,367.666129 C425.223064,368.264681 425.060878,369.27353 424.514841,369.934834 C423.899832,370.553936 423.167887,371.071851 422.352325,371.465005 C421.7404,371.792765 421.217789,372.237949 420.822345,372.768304 C420.778034,372.842878 420.740083,372.92033 420.708812,373 L416.075623,373 C415.053834,372.526631 414.108219,371.932376 413.264351,371.233307 L413.264351,371.233307 Z" id="Path" fill="#5F5F5F" fill-rule="nonzero"></path>
            <path d="M490.264093,355.20917 C489.683158,354.786451 489.260555,354.21558 489.052726,353.572807 C488.859272,352.910927 489.21107,352.218488 489.896356,351.912306 C490.675091,351.641993 491.51872,352.124697 492.140626,352.612227 C492.762533,353.099758 493.492597,353.654866 494.303779,353.577633 C493.441191,352.876425 493.051582,351.823987 493.276281,350.802089 C493.314013,350.595926 493.412988,350.402566 493.562899,350.242152 C493.995531,349.827028 494.779672,350.005629 495.29883,350.32904 C496.921194,351.362025 497.402495,353.360416 497.413312,355.156073 C497.494545,354.495144 497.494545,353.828266 497.413312,353.167336 C497.349747,352.493928 497.663586,351.836072 498.251533,351.410295 C498.642671,351.220997 499.083073,351.127719 499.527793,351.139981 C500.268925,351.044689 501.020408,351.236085 501.593604,351.666127 C502.226326,352.26468 502.058682,353.273531 501.512486,353.934834 C500.897682,354.554302 500.165445,355.072271 499.349333,355.465003 C498.737229,355.792765 498.214461,356.237947 497.818903,356.768302 C497.774578,356.842878 497.736615,356.92033 497.705337,357 L493.070783,357 C492.049001,356.518795 491.104872,355.916386 490.264093,355.20917 L490.264093,355.20917 Z" id="Path" fill="#5F5F5F" fill-rule="nonzero"></path>
            <path d="M464.267123,371.233307 C463.686086,370.810854 463.262664,370.240067 463.053233,369.596941 C462.858227,368.932339 463.212083,368.236625 463.90026,367.931615 C464.67715,367.666129 465.518781,368.148832 466.139214,368.636362 C466.759646,369.123892 467.487981,369.679001 468.297242,369.577634 C467.432983,368.878586 467.04359,367.824231 467.272179,366.802089 C467.307433,366.595284 467.406456,366.401373 467.558118,366.242154 C467.989724,365.827028 468.766614,366.005629 469.284541,366.32904 C470.903061,367.362025 471.388618,369.360418 471.394012,371.156073 C471.485822,370.4962 471.496675,369.829321 471.426384,369.167336 C471.360722,368.494648 471.671906,367.836566 472.257225,367.410296 C472.647711,367.221646 473.086874,367.128408 473.530462,367.139983 C474.271469,367.045142 475.02262,367.236409 475.596774,367.666129 C476.222603,368.264681 476.06075,369.27353 475.515848,369.934834 C474.901348,370.553212 474.171075,371.071018 473.357819,371.465005 C472.744918,371.79012 472.222789,372.235815 471.831014,372.768304 C471.78456,372.841896 471.746599,372.919528 471.717718,373 L467.088746,373 C466.063187,372.528052 465.11398,371.933728 464.267123,371.233307 L464.267123,371.233307 Z" id="Path" fill="#5F5F5F" fill-rule="nonzero"></path>
            <path d="M391.047397,338 C391.047397,338 389.243077,340.08238 391.87671,343.23074 C394.510343,346.3791 396.684493,349.036614 395.799144,351 C395.799144,351 391.826279,345.154462 388.593074,345.050344 C385.359868,344.946223 387.489188,341.500381 391.047397,338 Z" id="Path" fill="#191919" fill-rule="nonzero"></path>
            <path d="M391.09063,338 C390.929584,338.200766 390.803491,338.421322 390.716475,338.654462 C387.524817,341.931731 385.82411,344.995804 388.89105,345.070175 C391.753905,345.144545 395.183662,349.616705 396,350.742181 C395.97646,350.830396 395.944214,350.916659 395.903628,351 C395.903628,351 391.884292,345.154462 388.613269,345.050344 C385.342244,344.946223 387.490803,341.500381 391.09063,338 Z" id="Path" fill="#000000" fill-rule="nonzero" opacity="0.1"></path>
            <path d="M388.807792,339.650217 C388.807792,340.247107 388.896104,340.731071 389,340.731071 C389.103896,340.731071 389.192208,340.247107 389.192208,339.650217 C389.192208,339.053329 389.088312,339.335641 388.97922,339.335641 C388.87013,339.335641 388.807792,339.053329 388.807792,339.650217 Z" id="Path" fill="#FFD037" fill-rule="nonzero"></path>
            <path d="M387.616535,342.011316 C388.187621,342.519718 388.684027,342.832024 388.727957,342.701292 C388.771887,342.57056 388.345769,342.04763 387.774683,341.531966 C387.203595,341.0163 387.427637,341.39397 387.383707,341.531966 C387.339777,341.66996 387.045449,341.49565 387.616535,342.011316 Z" id="Path" fill="#FFD037" fill-rule="nonzero"></path>
            <path d="M400.95292,338 C400.95292,338 402.75039,340.08238 400.118579,343.23074 C397.486769,346.3791 395.319724,349.036614 396.198861,351 C396.198861,351 400.168975,345.154462 403.405542,345.050344 C406.64211,344.946223 404.508664,341.500381 400.95292,338 Z" id="Path" fill="#191919" fill-rule="nonzero"></path>
            <path d="M400.910573,338 C401.068374,338.20164 401.192351,338.422034 401.278725,338.654462 C404.473146,341.931731 406.172306,344.995804 403.10249,345.070175 C400.270556,345.144545 396.821262,349.616705 396,350.742181 C396,350.831427 396.062302,350.915713 396.096286,351 C396.096286,351 400.111969,345.154462 403.385683,345.050344 C406.659398,344.946223 404.507128,341.500381 400.910573,338 Z" id="Path" fill="#000000" fill-rule="nonzero" opacity="0.1"></path>
            <path d="M404.192208,339.650217 C404.192208,340.247107 404.10909,340.731071 404,340.731071 C403.890908,340.731071 403.807792,340.247107 403.807792,339.650217 C403.807792,339.053329 403.916882,339.335641 404.02078,339.335641 C404.124676,339.335641 404.192208,339.053329 404.192208,339.650217 Z" id="Path" fill="#FFD037" fill-rule="nonzero"></path>
            <path d="M404.383336,342.011316 C403.812036,342.519718 403.31105,342.832024 403.271498,342.701292 C403.231946,342.57056 403.65383,342.04763 404.22513,341.531966 C404.79643,341.0163 404.572304,341.39397 404.61625,341.531966 C404.660196,341.66996 404.954636,341.49565 404.383336,342.011316 Z" id="Path" fill="#FFD037" fill-rule="nonzero"></path>
            <path d="M403,350.573296 C403,350.573296 398.426693,350.424981 397.054701,349.402664 C395.682708,348.380349 390.027052,347.162044 389.686594,348.804107 C389.346137,350.446169 382.816472,356.956152 387.979226,356.998527 C393.141982,357.040903 399.961291,356.161606 401.338366,355.287605 C402.715438,354.413603 403,350.573296 403,350.573296 Z" id="Path" fill="#A8A8A8" fill-rule="nonzero"></path>
            <path d="M387.881541,356.46948 C393.044685,356.509042 399.869589,355.688125 401.246766,354.872154 C402.288543,354.253995 402.710336,352.028618 402.847546,351 L403,351 C403,351 402.710336,354.585329 401.33824,355.4013 C399.966143,356.21727 393.136159,357.038188 387.978096,356.998625 C386.489118,356.998625 385.97077,356.46948 386.001262,355.707906 C386.209617,356.172763 386.773701,356.45959 387.881541,356.46948 Z" id="Path" fill="#000000" fill-rule="nonzero" opacity="0.2"></path>
            <ellipse id="Oval" fill="#232323" fill-rule="nonzero" cx="86" cy="364" rx="18" ry="3"></ellipse>
            <ellipse id="Oval" fill="#232323" fill-rule="nonzero" cx="130" cy="387" rx="18" ry="3"></ellipse>
            <ellipse id="Oval" fill="#232323" fill-rule="nonzero" cx="320.5" cy="325" rx="11.5" ry="2"></ellipse>
            <ellipse id="Oval" fill="#232323" fill-rule="nonzero" cx="265.5" cy="364" rx="11.5" ry="2"></ellipse>
            <ellipse id="Oval" fill="#232323" fill-rule="nonzero" cx="240.5" cy="387" rx="11.5" ry="2"></ellipse>
        </g>
    </g>
</svg>